<?xml version="1.0" standalone="no"?>
<!DOCTYPE svg PUBLIC "-//W3C//DTD SVG 1.1//EN" "http://www.w3.org/Graphics/SVG/1.1/DTD/svg11.dtd" >
<svg xmlns="http://www.w3.org/2000/svg">
<metadata>Generated by IcoMoon</metadata>
<defs>
<font id="icomoon" horiz-adv-x="1024">
<font-face units-per-em="1024" ascent="870.850439882698" descent="-153.14956011730206" />
<missing-glyph horiz-adv-x="1024" />
<glyph unicode="&#x20;" d="" />
<glyph unicode="&#xe900;" glyph-name="file" horiz-adv-x="769" d="M448.438 585.728v272.266h-400.391c-26.626 0-48.047-21.421-48.047-48.047v-928.907c0-26.626 21.421-48.047 48.047-48.047h672.657c26.626 0 48.047 21.421 48.047 48.047v656.641h-272.266c-26.426 0-48.047 21.621-48.047 48.047zM768.751 613.956v-12.212h-256.25v256.25h12.212c12.813 0 25.024-5.005 34.033-14.014l195.991-196.192c9.009-9.009 14.014-21.221 14.014-33.833z" />
<glyph unicode="&#xe901;" glyph-name="angle-up-regular" horiz-adv-x="641" d="M337.329 529.273l296.289-293.887c9.409-9.409 9.409-24.624 0-34.033l-39.639-39.639c-9.409-9.409-24.624-9.409-34.033 0l-239.634 237.232-239.634-237.232c-9.409-9.409-24.624-9.409-34.033 0l-39.639 39.639c-9.409 9.409-9.409 24.624 0 34.033l296.289 293.887c9.409 9.409 24.624 9.409 34.033 0z" />
<glyph unicode="&#xe902;" glyph-name="bars" horiz-adv-x="897" d="M872.852 609.752h-848.829c-13.267 0-24.023 10.757-24.023 24.023v64.063c0 13.267 10.757 24.023 24.023 24.023h848.829c13.267 0 24.023-10.757 24.023-24.023v-64.063c0-13.267-10.757-24.023-24.023-24.023zM872.852 289.439h-848.829c-13.267 0-24.023 10.757-24.023 24.023v64.063c0 13.267 10.757 24.023 24.023 24.023h848.829c13.267 0 24.023-10.757 24.023-24.023v-64.063c0-13.267-10.757-24.023-24.023-24.023zM872.852-30.874h-848.829c-13.267 0-24.023 10.757-24.023 24.023v64.063c0 13.267 10.757 24.023 24.023 24.023h848.829c13.267 0 24.023-10.757 24.023-24.023v-64.063c0-13.267-10.757-24.023-24.023-24.023z" />
<glyph unicode="&#xe903;" glyph-name="angle-right-light" horiz-adv-x="384" d="M334.126 328.477l-235.83-232.227c-9.409-9.409-24.624-9.409-34.033 0l-14.214 14.214c-9.409 9.409-9.409 24.624 0 34.033l204.8 200.996-204.6 200.996c-9.409 9.409-9.409 24.624 0 34.033l14.214 14.214c9.409 9.409 24.624 9.409 34.033 0l235.83-232.227c9.209-9.409 9.209-24.624-0.2-34.033z" />
<glyph unicode="&#xe904;" glyph-name="facebook-f" horiz-adv-x="641" d="M558.826 281.431l28.468 185.501h-177.994v120.378c0 50.75 24.864 100.218 104.582 100.218h80.919v157.934s-73.432 12.532-143.64 12.532c-146.583 0-242.397-88.847-242.397-249.684v-141.378h-162.939v-185.501h162.939v-448.438h200.536v448.438z" />
<glyph unicode="&#xe905;" glyph-name="linkedin-in" horiz-adv-x="897" d="M200.756-38.882h-185.942v598.785h185.942zM107.685 641.583c-59.458 0-107.685 49.248-107.685 108.706 0 59.473 48.212 107.685 107.685 107.685s107.685-48.212 107.685-107.685v0c0-59.458-48.247-108.706-107.685-108.706zM896.676-38.882h-185.541v291.485c0 69.468-1.401 158.555-96.674 158.555-96.674 0-111.489-75.474-111.489-153.55v-296.49h-185.741v598.785h178.334v-81.68h2.603c24.824 47.046 85.463 96.694 175.932 96.694 188.184 0 222.778-123.921 222.778-284.878v-328.921z" />
<glyph unicode="&#xe906;" glyph-name="clipboard-list" horiz-adv-x="769" d="M672.657 729.869h-160.156c0 70.669-57.456 128.125-128.125 128.125s-128.125-57.456-128.125-128.125h-160.156c-53.052 0-96.094-43.042-96.094-96.094v-704.688c0-53.052 43.042-96.094 96.094-96.094h576.563c53.052 0 96.094 43.042 96.094 96.094v704.688c0 53.052-43.042 96.094-96.094 96.094zM192.188 9.165c-26.626 0-48.047 21.421-48.047 48.047s21.421 48.047 48.047 48.047 48.047-21.421 48.047-48.047-21.421-48.047-48.047-48.047zM192.188 201.353c-26.626 0-48.047 21.421-48.047 48.047s21.421 48.047 48.047 48.047 48.047-21.421 48.047-48.047-21.421-48.047-48.047-48.047zM192.188 393.541c-26.626 0-48.047 21.421-48.047 48.047s21.421 48.047 48.047 48.047 48.047-21.421 48.047-48.047-21.421-48.047-48.047-48.047zM384.375 777.916c26.626 0 48.047-21.421 48.047-48.047s-21.421-48.047-48.047-48.047-48.047 21.421-48.047 48.047 21.421 48.047 48.047 48.047zM640.626 41.196c0-8.809-7.207-16.016-16.016-16.016h-288.282c-8.809 0-16.016 7.207-16.016 16.016v32.031c0 8.809 7.207 16.016 16.016 16.016h288.282c8.809 0 16.016-7.207 16.016-16.016v-32.031zM640.626 233.384c0-8.809-7.207-16.016-16.016-16.016h-288.282c-8.809 0-16.016 7.207-16.016 16.016v32.031c0 8.809 7.207 16.016 16.016 16.016h288.282c8.809 0 16.016-7.207 16.016-16.016v-32.031zM640.626 425.572c0-8.809-7.207-16.016-16.016-16.016h-288.282c-8.809 0-16.016 7.207-16.016 16.016v32.031c0 8.809 7.207 16.016 16.016 16.016h288.282c8.809 0 16.016-7.207 16.016-16.016v-32.031z" />
<glyph unicode="&#xe907;" glyph-name="angle-left-regular" horiz-adv-x="384" d="M8.408 362.51l293.887 296.289c9.409 9.409 24.624 9.409 34.033 0l39.639-39.639c9.409-9.409 9.409-24.624 0-34.033l-237.232-239.634 237.232-239.634c9.409-9.409 9.409-24.624 0-34.033l-39.639-39.639c-9.409-9.409-24.624-9.409-34.033 0l-293.887 296.289c-9.409 9.409-9.409 24.624 0 34.033z" />
<glyph unicode="&#xe908;" glyph-name="angle-right-regular" horiz-adv-x="384" d="M375.967 328.477l-293.887-296.289c-9.409-9.409-24.624-9.409-34.033 0l-39.639 39.639c-9.409 9.409-9.409 24.624 0 34.033l237.232 239.634-237.232 239.634c-9.409 9.409-9.409 24.624 0 34.033l39.639 39.639c9.409 9.409 24.624 9.409 34.033 0l293.887-296.289c9.409-9.409 9.409-24.624 0-34.033z" />
<glyph unicode="&#xe909;" glyph-name="check" d="M872.548 690.899l-526.602-526.602-193.493 193.493c-9.381 9.381-24.592 9.381-33.975 0l-56.623-56.623c-9.381-9.381-9.381-24.592 0-33.975l267.103-267.103c9.381-9.381 24.592-9.381 33.975 0l600.212 600.212c9.381 9.381 9.381 24.592 0 33.975l-56.623 56.623c-9.381 9.381-24.592 9.381-33.973 0z" />
<glyph unicode="&#xe90a;" glyph-name="angle-down-light" horiz-adv-x="513" d="M239.234 203.555l-232.227 235.83c-9.409 9.409-9.409 24.624 0 34.033l14.214 14.214c9.409 9.409 24.624 9.409 34.033 0l200.996-204.8 200.996 204.6c9.409 9.409 24.624 9.409 34.033 0l14.214-14.214c9.409-9.409 9.409-24.624 0-34.033l-232.227-235.83c-9.409-9.209-24.624-9.209-34.033 0.2z" />
<glyph unicode="&#xe90b;" glyph-name="angle-left-light" horiz-adv-x="384" d="M50.249 362.51l235.83 232.227c9.409 9.409 24.624 9.409 34.033 0l14.214-14.214c9.409-9.409 9.409-24.624 0-34.033l-204.8-200.996 204.6-200.996c9.409-9.409 9.409-24.624 0-34.033l-14.214-14.214c-9.409-9.409-24.624-9.409-34.033 0l-235.83 232.227c-9.209 9.409-9.209 24.624 0.2 34.033z" />
<glyph unicode="&#xe90c;" glyph-name="calendar-alt" horiz-adv-x="897" d="M800.782 729.869h-96.094v104.102c0 13.213-10.811 24.023-24.023 24.023h-16.016c-13.213 0-24.023-10.811-24.023-24.023v-104.102h-384.375v104.102c0 13.213-10.811 24.023-24.023 24.023h-16.016c-13.213 0-24.023-10.811-24.023-24.023v-104.102h-96.094c-53.052 0-96.094-43.042-96.094-96.094v-704.688c0-53.052 43.042-96.094 96.094-96.094h704.688c53.052 0 96.094 43.042 96.094 96.094v704.688c0 53.052-43.042 96.094-96.094 96.094zM96.094 665.806h704.688c17.617 0 32.031-14.414 32.031-32.031v-96.094h-768.751v96.094c0 17.617 14.414 32.031 32.031 32.031zM800.782-102.944h-704.688c-17.617 0-32.031 14.414-32.031 32.031v544.532h768.751v-544.532c0-17.617-14.414-32.031-32.031-32.031zM296.289 217.369h-80.078c-13.213 0-24.023 10.811-24.023 24.023v80.078c0 13.213 10.811 24.023 24.023 24.023h80.078c13.213 0 24.023-10.811 24.023-24.023v-80.078c0-13.213-10.811-24.023-24.023-24.023zM488.477 217.369h-80.078c-13.213 0-24.023 10.811-24.023 24.023v80.078c0 13.213 10.811 24.023 24.023 24.023h80.078c13.213 0 24.023-10.811 24.023-24.023v-80.078c0-13.213-10.811-24.023-24.023-24.023zM680.665 217.369h-80.078c-13.213 0-24.023 10.811-24.023 24.023v80.078c0 13.213 10.811 24.023 24.023 24.023h80.078c13.213 0 24.023-10.811 24.023-24.023v-80.078c0-13.213-10.811-24.023-24.023-24.023zM488.477 25.181h-80.078c-13.213 0-24.023 10.811-24.023 24.023v80.078c0 13.213 10.811 24.023 24.023 24.023h80.078c13.213 0 24.023-10.811 24.023-24.023v-80.078c0-13.213-10.811-24.023-24.023-24.023zM296.289 25.181h-80.078c-13.213 0-24.023 10.811-24.023 24.023v80.078c0 13.213 10.811 24.023 24.023 24.023h80.078c13.213 0 24.023-10.811 24.023-24.023v-80.078c0-13.213-10.811-24.023-24.023-24.023zM680.665 25.181h-80.078c-13.213 0-24.023 10.811-24.023 24.023v80.078c0 13.213 10.811 24.023 24.023 24.023h80.078c13.213 0 24.023-10.811 24.023-24.023v-80.078c0-13.213-10.811-24.023-24.023-24.023z" />
<glyph unicode="&#xe90d;" glyph-name="calendar" horiz-adv-x="897" d="M800.782 729.869h-96.094v104.102c0 13.267-10.757 24.023-24.023 24.023h-16.016c-13.267 0-24.023-10.757-24.023-24.023v-104.102h-384.375v104.102c0 13.267-10.757 24.023-24.023 24.023h-16.016c-13.267 0-24.023-10.757-24.023-24.023v-104.102h-96.094c-53.072 0-96.094-43.022-96.094-96.094v-704.688c0-53.072 43.022-96.094 96.094-96.094h704.688c53.072 0 96.094 43.022 96.094 96.094v704.688c0 53.072-43.022 96.094-96.094 96.094zM96.094 665.806h704.688c17.661 0 32.031-14.37 32.031-32.031v-96.094h-768.751v96.094c0 17.661 14.37 32.031 32.031 32.031zM800.782-102.944h-704.688c-17.661 0-32.031 14.37-32.031 32.031v544.532h768.751v-544.532c0-17.661-14.37-32.031-32.031-32.031z" />
<glyph unicode="&#xe90e;" glyph-name="illustration_star" d="M512.5 62.372l-207.771-102.223c-5.377-2.722-11.721-4.315-18.439-4.315-22.949 0-41.555 18.604-41.555 41.555 0 2.109 0.157 4.181 0.46 6.205l-0.028-0.228 32.966 229.24-161.507 166.216c-6.954 7.41-11.225 17.409-11.225 28.406 0 20.258 14.496 37.13 33.681 40.809l0.26 0.042 228.271 39.477 108.18 204.862c7.128 13.233 20.884 22.076 36.706 22.076s29.578-8.843 36.598-21.855l0.109-0.22 108.18-204.862 228.271-39.477c19.445-3.721 33.941-20.593 33.941-40.851 0-10.997-4.271-20.996-11.246-28.429l0.021 0.022-161.507-166.216 32.966-229.24c0.275-1.796 0.432-3.869 0.432-5.977 0-22.949-18.604-41.555-41.555-41.555-6.718 0-13.062 1.594-18.677 4.424l0.238-0.109z" />
<glyph unicode="&#xe90f;" glyph-name="illustration_trophy-lock" d="M537.017 506.723h-49.034v24.517c0 13.54 10.977 24.517 24.517 24.517s24.517-10.977 24.517-24.517v0zM572.338 408.794c9.027 0 16.345 7.318 16.345 16.345v0 65.24c0 9.027-7.318 16.345-16.345 16.345h-8.172v24.517c0 28.534-23.132 51.665-51.665 51.665s-51.665-23.132-51.665-51.665v0-24.517h-8.172c-9.027 0-16.345-7.318-16.345-16.345v0-65.24c0-9.027 7.318-16.345 16.345-16.345v0z" />
<glyph unicode="&#xe910;" glyph-name="illustration_trophy-star" d="M512.5 435.666l-49.311-25.902c-1.159-0.608-2.531-0.965-3.988-0.965-4.82 0-8.727 3.907-8.727 8.727 0 0.487 0.040 0.965 0.117 1.431l-0.007-0.051 9.419 55.405-39.892 38.922c-1.613 1.564-2.614 3.749-2.614 6.169 0 4.345 3.228 7.938 7.416 8.508l0.044 0.005 55.405 8.034 24.655 50.004c1.412 2.922 4.353 4.902 7.757 4.902s6.345-1.98 7.735-4.851l0.022-0.051 24.655-50.004 55.405-8.034c4.233-0.577 7.461-4.168 7.461-8.513 0-2.419-1.001-4.605-2.611-6.167l-0.002-0.002-39.892-38.922 9.419-55.405c0.070-0.415 0.11-0.893 0.11-1.38 0-4.82-3.907-8.727-8.727-8.727-1.456 0-2.83 0.356-4.036 0.988l0.048-0.023z" />
<glyph unicode="&#xe911;" glyph-name="illustration_star-lock" d="M537.017 344.663h-49.034v24.517c0 13.54 10.977 24.517 24.517 24.517s24.517-10.977 24.517-24.517v0zM572.338 246.733c0.004 0 0.010 0 0.015 0 8.784 0 15.949 6.928 16.329 15.617l0.001 0.034v65.932c0 9.027-7.318 16.345-16.345 16.345v0h-8.172v24.517c0 28.534-23.132 51.665-51.665 51.665s-51.665-23.132-51.665-51.665v0-24.517h-8.172c-9.027 0-16.345-7.318-16.345-16.345v0-65.932c0-9.027 7.318-16.345 16.345-16.345v0z" />
<glyph unicode="&#xe912;" glyph-name="illustration_trophy" d="M764.041 642.606c1.108 16.345 1.939 32.689 1.939 49.172h-506.96c0-16.483 0.831-32.828 1.939-49.172h-132.419v-21.055c0.317-131.726 92.521-241.825 215.893-269.612l1.851-0.35c34.931-63.274 76.368-117.645 124.578-165.163l0.085-0.083v-103.193h-41.555c-0.247 0.003-0.539 0.004-0.831 0.004-46.358 0-83.939-37.581-83.939-83.939 0-0.001 0-0.003 0-0.004v0h335.619c0 0.042 0 0.092 0 0.141 0 46.038-37.125 83.405-83.071 83.798h-43.115v103.193c48.294 47.601 89.731 101.974 122.816 161.618l1.847 3.629c125.221 28.138 217.426 138.238 217.744 269.928v21.090zM171.479 601.051h93.635c9.742-73.575 29.19-140.293 57.226-202.298l-1.821 4.5c-81.779 32.454-140.302 107.139-148.965 196.42l-0.075 0.962zM704.342 402.839c26.289 57.514 45.743 124.241 55.014 194.184l0.391 3.615h93.774c-8.608-90.44-67.231-165.321-147.588-197.24l-1.592-0.558z" />
<glyph unicode="&#xe913;" glyph-name="angle-down-regular" horiz-adv-x="641" d="M303.296 161.714l-296.289 293.887c-9.409 9.409-9.409 24.624 0 34.033l39.639 39.639c9.409 9.409 24.624 9.409 34.033 0l239.634-237.232 239.634 237.232c9.409 9.409 24.624 9.409 34.033 0l39.639-39.639c9.409-9.409 9.409-24.624 0-34.033l-296.289-293.887c-9.409-9.409-24.624-9.409-34.033 0z" />
<glyph unicode="&#xe914;" glyph-name="angle-up-light" horiz-adv-x="513" d="M273.267 487.432l232.227-235.83c9.409-9.409 9.409-24.624 0-34.033l-14.214-14.214c-9.409-9.409-24.624-9.409-34.033 0l-200.996 204.8-200.996-204.6c-9.409-9.409-24.624-9.409-34.033 0l-14.214 14.214c-9.409 9.409-9.409 24.624 0 34.033l232.227 235.83c9.409 9.209 24.624 9.209 34.033-0.2z" />
<glyph unicode="&#xe915;" glyph-name="bullhorn" horiz-adv-x="1153" d="M1089.064 487.873v306.039c0 17.517-13.974 64.083-64.043 64.083h-0.020c-14.254 0-28.408-4.765-39.999-14.054l-170.226-136.193c-85.503-68.347-192.848-106.004-302.275-106.004h-384.375c-70.769 0-128.125-57.356-128.125-128.125v-192.188c0-70.769 57.356-128.125 128.125-128.125l-0.961-64.063c0-79.618 18.538-154.851 51.17-222.097 10.39-21.401 33.072-34.153 56.856-34.153h212.768c52.151 0 83.462 59.738 51.851 101.219-32.832 43.082-52.351 96.815-52.351 155.031 0 22.242 3.243 43.623 8.829 64.063h56.215c109.427 0 216.772-37.657 302.255-106.004l170.226-136.193c10.855-8.744 24.807-14.040 39.996-14.054h0.003c49.889 0 64.063 45.605 64.063 64.063v306.039c38.137 22.202 64.063 63.042 64.063 110.348 0.020 47.326-25.905 88.166-64.043 110.368zM255.71-70.913c-21.541 50.95-32.452 104.722-32.452 160.156 0 28.468 3.443 50.73 5.205 64.063h129.947c-4.184-21.421-7.047-42.862-7.047-64.063 0-56.495 13.173-110.908 38.458-160.156h-134.111zM480.469 249.4h-352.344c-17.657 0-32.031 14.374-32.031 32.031v192.188c0 17.657 14.374 32.031 32.031 32.031h352.344v-256.25zM992.97 27.783l-118.195 94.572c-85.684 68.507-189.765 110.848-298.211 123.020v264.298c108.446 12.172 212.528 54.513 298.231 123.040l118.175 94.552v-699.483z" />
<glyph unicode="&#xe916;" glyph-name="lightbulb" horiz-adv-x="726" d="M431.26-167.005c10.731 0 20.741 5.364 26.667 14.293l49.067 73.753c3.483 5.243 5.345 11.409 5.364 17.697l0.141 150.506c4.524 31.47 54.033 126.505 104.984 184.619 54.272 61.921 87.204 142.96 87.204 231.786 0 194.59-157.753 352.343-352.343 352.343-206.101 0-352.583-167.243-352.343-352.825 0.119-88.645 33.032-169.505 87.204-231.306 51.351-58.557 100.678-153.948 104.984-184.619l0.119-150.506c0-6.307 1.883-12.453 5.366-17.697l49.067-73.753c5.945-8.929 15.955-14.293 26.667-14.293h157.853zM468.055 153.327h-231.405c-28.547 66.506-73.252 130.829-101.259 162.78-46.305 52.812-71.069 119.777-71.231 189.544-0.359 154.131 120.878 288.281 288.182 288.281 158.955 0 288.281-129.325 288.281-288.281 0-69.767-25.326-137.095-71.31-189.544-28.007-31.951-72.731-96.295-101.259-162.78zM448.398 25.183h-192.129l-0.139 64.063h192.346l-0.078-64.063zM414.102-102.942h-123.541l-34.213 51.431-0.020 12.631h191.987v-12.631l-34.215-51.431z" />
<glyph unicode="&#xe917;" glyph-name="check-with-circle" d="M512.5 857.994c-283.046 0-512.5-229.454-512.5-512.5v0c0-283.046 229.454-512.5 512.5-512.5v0c283.046 0 512.5 229.454 512.5 512.5v0c0 283.046-229.454 512.5-512.5 512.5v0zM771.865 550.361c7.562 0 15.14-2.906 20.909-8.675l41.819-41.819c11.539-11.539 11.539-30.279 0-41.819l-339.776-339.776c-11.54-11.538-30.28-11.54-41.819 0l-192.077 192.077c-11.539 11.538-11.539 30.279 0 41.819l41.819 41.708c11.539 11.54 30.168 11.54 41.708 0l129.459-129.348 277.049 277.16c5.77 5.77 13.347 8.675 20.909 8.675z" />
<glyph unicode="&#xe918;" glyph-name="Doc--Code" d="M820.907 778.667c32.427 34.133 87.040 34.133 119.467 0 32.427-32.427 32.427-87.040 0-121.173v0l-25.6-25.6h30.72c42.667 0 76.8-32.427 78.507-73.387v-575.147c0-42.667-32.427-76.8-73.387-78.507h-872.107c-42.667 0-76.8 32.427-78.507 73.387v576.853c0 42.667 32.427 76.8 73.387 78.507h599.040l148.48 145.067zM491.52 450.987h-460.8v-467.627c0-25.6 20.48-46.080 46.080-47.787h870.4c25.6 0 46.080 20.48 47.787 46.080v469.333h-261.12l-186.027-184.32c0 0 0 0-1.707 0 0 0-1.707-1.707-1.707-1.707s0 0 0 0h-1.707l-157.013-56.32c-11.947-3.413-22.187 5.12-20.48 17.067v1.707l56.32 157.013c0 0 0 1.707 1.707 1.707 0 0 0 0 0 0v0c0 0 0 1.707 1.707 1.707 0 0 1.707 1.707 1.707 1.707v-5.12c0 0 0 0 1.707 1.707v0l63.147 64.853zM443.733 348.587l-37.547-104.107 104.107 37.547-66.56 66.56zM815.787 732.587l-356.693-356.693 78.507-78.507 331.093 331.093c0 0 0 0 0 0l25.6 25.6-78.507 78.507zM945.493 602.88h-59.733l-122.88-122.88h232.107v73.387c0 25.6-20.48 46.080-46.080 47.787l-3.413 1.707zM645.12 602.88h-564.907c-25.6 0-46.080-20.48-47.787-46.080v-76.8h491.52l121.173 122.88zM267.947 553.387c8.533 0 15.36-6.827 15.36-15.36 0-6.827-5.12-13.653-13.653-15.36h-172.373c-8.533 0-15.36 6.827-15.36 15.36 0 6.827 5.12 13.653 13.653 15.36h172.373zM919.893 758.187c-22.187 22.187-56.32 22.187-78.507 0v0l-5.12-5.12 78.507-78.507 5.12 5.12c20.48 20.48 22.187 51.2 5.12 73.387l-3.413 1.707-1.707 3.413z" />
<glyph unicode="&#xe919;" glyph-name="Doc--Coding-2" d="M377.173 742.827c3.413 0 8.533-1.707 10.24-5.12l1.707-1.707 90.453-133.12h259.413c1.707 0 5.12 0 6.827-1.707 29.013 25.6 68.267 40.96 109.227 40.96 92.16 0 168.96-75.093 168.96-168.96 0-76.8-51.2-139.947-119.467-160.427v-315.733c0-6.827-5.12-13.653-13.653-15.36h-870.4c-6.827 0-13.653 5.12-15.36 11.947v1.707l-5.12 732.16c0 6.827 5.12 13.653 13.653 15.36h363.52zM368.64 713.813h-337.92l5.12-699.733h837.973v293.547c-6.827 0-11.947-1.707-18.773-1.707-92.16 0-168.96 75.093-168.96 168.96 0 37.547 11.947 71.68 32.427 98.987h-247.467c-3.413 0-8.533 1.707-10.24 5.12l-1.707 1.707-90.453 133.12zM855.040 613.12c-76.8 0-138.24-61.44-138.24-138.24s61.44-138.24 138.24-138.24 138.24 61.44 138.24 138.24-61.44 138.24-138.24 138.24zM943.787 532.907c5.12-5.12 5.12-13.653 1.707-18.773l-95.573-95.573c-5.12-5.12-13.653-5.12-18.773-1.707l-46.080 46.080c-5.12 5.12-5.12 15.36 0 20.48s13.653 5.12 18.773 1.707l35.84-35.84 83.627 83.627c5.12 5.12 15.36 5.12 20.48 0z" />
<glyph unicode="&#xe91a;" glyph-name="Evaluate" d="M430.080 864c237.227 0 430.080-192.853 430.080-430.080 0-73.387-18.773-143.36-51.2-204.8l179.2-179.2c47.787-47.787 47.787-124.587 0-172.373-46.080-46.080-119.467-47.787-167.253-3.413l-182.613 182.613c-61.44-34.133-131.413-52.907-208.213-52.907-237.227 0-430.080 192.853-430.080 430.080s192.853 430.080 430.080 430.080zM960.853 34.56l-129.707-129.707 5.12-5.12c35.84-35.84 93.867-35.84 129.707 0 34.133 34.133 35.84 90.453 3.413 126.293l-8.533 8.533zM793.6 201.813c-32.427-51.2-76.8-95.573-129.707-129.707l146.773-146.773 129.707 129.707-146.773 146.773zM430.080 833.28c-221.867 0-401.067-179.2-401.067-401.067s179.2-401.067 401.067-401.067 401.067 179.2 401.067 401.067-179.2 401.067-401.067 401.067zM430.080 741.12c168.96 0 307.2-138.24 307.2-307.2s-138.24-307.2-307.2-307.2c-168.96 0-307.2 138.24-307.2 307.2s138.24 307.2 307.2 307.2zM430.080 710.4c-153.6 0-276.48-122.88-276.48-276.48s124.587-278.187 278.187-278.187c153.6 0 278.187 124.587 278.187 278.187-1.707 153.6-126.293 276.48-279.893 276.48z" />
<glyph unicode="&#xe91b;" glyph-name="Events" d="M769.707 742.827c97.28 0 175.787-78.507 175.787-175.787 0-56.32-27.307-107.52-68.267-139.947 87.040-51.2 145.067-157.013 146.773-271.36v-11.947c0-6.827-5.12-13.653-13.653-15.36h-259.413c11.947-34.133 20.48-71.68 20.48-110.933v-11.947c0-6.827-5.12-13.653-13.653-15.36h-486.4c-6.827 0-13.653 5.12-15.36 13.653v6.827c0 40.96 6.827 81.92 20.48 119.467h-261.12c-6.827 0-13.653 5.12-15.36 13.653v3.413c0 119.467 58.027 226.987 148.48 279.893-40.96 32.427-68.267 81.92-68.267 138.24 0 97.28 78.507 175.787 175.787 175.787 92.16 0 167.253-71.68 175.787-162.133 23.893 11.947 51.2 20.48 80.213 20.48s56.32-6.827 81.92-20.48c8.533 92.16 83.627 163.84 175.787 163.84zM593.92 268.373l-3.413-1.707c-23.893-11.947-49.493-17.067-76.8-17.067-29.013 0-56.32 6.827-80.213 18.773-87.040-42.667-143.36-136.533-148.48-244.053v-3.413h455.68v3.413c-3.413 107.52-61.44 201.387-146.773 244.053zM689.493 410.027v0c-5.12-51.2-29.013-95.573-66.56-124.587 49.493-29.013 90.453-73.387 116.053-128h256v3.413c-5.12 109.227-61.44 204.8-145.067 247.467-23.893-11.947-49.493-18.773-78.507-18.773-29.013 1.707-58.027 8.533-81.92 20.48zM337.92 410.027l-5.12-1.707c-23.893-11.947-49.493-17.067-76.8-17.067-29.013 0-54.613 6.827-78.507 18.773-85.333-42.667-143.36-138.24-146.773-247.467v-3.413h257.707c25.6 54.613 66.56 98.987 116.053 128-35.84 29.013-61.44 73.387-66.56 122.88zM513.707 570.453c-76.8 0-139.947-59.733-145.067-134.827 0 0 0 0 0 0 0-3.413 0-6.827 0-10.24 0-80.213 64.853-146.773 146.773-146.773 25.6 0 51.2 6.827 71.68 18.773 0 0 0 0 0 0 44.373 25.6 73.387 73.387 73.387 126.293 0 81.92-66.56 146.773-146.773 146.773zM769.707 712.107c-80.213 0-146.773-64.853-146.773-146.773v-5.12c35.84-29.013 59.733-69.973 64.853-116.053 23.893-15.36 52.907-25.6 81.92-25.6 80.213 0 146.773 64.853 146.773 146.773s-64.853 146.773-146.773 146.773zM257.707 712.107c-80.213 0-146.773-64.853-146.773-146.773 0-80.213 64.853-146.773 146.773-146.773 29.013 0 58.027 8.533 81.92 25.6 5.12 47.787 29.013 88.747 64.853 116.053v1.707c0 1.707 0 1.707 0 3.413 0 81.92-66.56 146.773-146.773 146.773z" />
<glyph unicode="&#xe91c;" glyph-name="Implement" d="M189.44-160c-104.107 0-189.44 85.333-189.44 189.44v0 440.32c0 105.813 85.333 189.44 189.44 189.44v0h220.16c8.533 0 15.36-6.827 15.36-15.36v0-143.36c0-20.48-20.48-35.84-40.96-30.72v0l-22.187 6.827c-22.187 6.827-42.667-8.533-42.667-32.427 0-22.187 22.187-39.253 42.667-32.427v0l22.187 6.827c20.48 6.827 40.96-8.533 40.96-30.72v0-128h128c0 0 1.707 0 1.707 1.707v0l-8.533 27.307c-11.947 40.96 17.067 81.92 59.733 81.92 40.96 0 71.68-39.253 61.44-78.507l-1.707-3.413-5.12-22.187c0 0 0-1.707 0-1.707v0h143.36c6.827 0 13.653-5.12 15.36-13.653v-221.867c0-102.4-81.92-186.027-184.32-189.44h-445.44zM607.573 341.76c-22.187 0-37.547-20.48-32.427-40.96v-3.413l6.827-22.187c6.827-18.773-6.827-39.253-27.307-40.96h-131.413v-128c0 0 0-1.707 1.707-1.707v0l22.187 6.827c40.96 11.947 81.92-17.067 81.92-59.733s-40.96-73.387-81.92-59.733v0l-20.48 6.827c-1.707 0-1.707 0-1.707-1.707v0-128h204.8c87.040 0 157.013 68.267 160.427 155.307v209.92h-128c-20.48 0-35.84 18.773-30.72 37.547v1.707l6.827 22.187c6.827 23.893-8.533 46.080-30.72 46.080zM29.013 29.44c0-88.747 71.68-160.427 160.427-160.427v0h204.8v128c0 20.48 18.773 34.133 37.547 30.72v0h1.707l22.187-6.827c22.187-6.827 42.667 10.24 42.667 32.427s-22.187 39.253-42.667 32.427v0l-22.187-6.827c-20.48-6.827-40.96 8.533-40.96 30.72v0 128h-128c0 0-1.707 0-1.707-1.707v0l6.827-22.187c11.947-40.96-17.067-81.92-59.733-81.92-40.96 0-71.68 39.253-61.44 78.507l1.707 3.413 8.533 18.773c0 0 0 1.707 0 1.707v0h-128v-204.8zM395.947 630.187h-204.8c-87.040 0-157.013-68.267-160.427-155.307v0-209.92h128c20.48 0 34.133-18.773 30.72-37.547v-1.707l-6.827-22.187c-6.827-22.187 8.533-42.667 32.427-42.667 22.187 0 37.547 20.48 32.427 40.96v3.413l-6.827 22.187c-6.827 18.773 6.827 39.253 27.307 40.96h131.413v128c0 0 0 1.707-1.707 1.707v0l-22.187-6.827c-40.96-11.947-81.92 17.067-81.92 59.733s40.96 73.387 81.92 59.733v0l22.187-6.827c1.707 0 1.707 0 1.707 1.707v0 124.587zM834.56 864c104.107 0 189.44-85.333 189.44-189.44v0-220.16c0-8.533-6.827-15.36-15.36-15.36v0h-143.36c-20.48 0-35.84 20.48-30.72 40.96v0l6.827 22.187c6.827 22.187-8.533 42.667-32.427 42.667-22.187 0-39.253-22.187-32.427-42.667v0l6.827-22.187c6.827-20.48-8.533-40.96-30.72-40.96v0h-138.24c-8.533 0-15.36 6.827-15.36 15.36v0 143.36c0 1.707-1.707 1.707-1.707 1.707v0l-23.893-8.533c-40.96-11.947-81.92 17.067-81.92 59.733s40.96 73.387 81.92 59.733v0l23.893-5.12c1.707 0 1.707 0 1.707 1.707v0 141.653c0 8.533 6.827 15.36 15.36 15.36v0h220.16zM834.56 834.987h-204.8v-128c0-20.48-20.48-35.84-40.96-30.72v0l-22.187 6.827c-22.187 6.827-42.667-8.533-42.667-32.427 0-22.187 22.187-39.253 42.667-32.427v0l22.187 6.827c20.48 6.827 40.96-8.533 40.96-30.72v0-128h128c0 0 1.707 0 1.707 1.707v0 0l-8.533 25.6c-11.947 40.96 17.067 81.92 59.733 81.92s73.387-40.96 59.733-81.92v0l-5.12-22.187c0-1.707 0-1.707 1.707-1.707v0h128v204.8c0 87.040-68.267 157.013-155.307 160.427v0h-5.12z" />
<glyph unicode="&#xe91d;" glyph-name="Library" d="M455.68 452.693c-1.707 11.947 10.24 20.48 20.48 15.36v0l433.493-187.733c10.24-5.12 11.947-18.773 3.413-25.6v0l-126.293-95.573c0 0 0 0 0-1.707 0 0 0-1.707 0-1.707v0l165.547-221.867c5.12-6.827 3.413-15.36-3.413-20.48v0l-95.573-69.973c-6.827-5.12-15.36-3.413-20.48 3.413v0l-165.547 221.867c0 0 0 0-1.707 0 0 0 0 0-1.707 0v0l-126.293-93.867c-8.533-6.827-22.187-1.707-23.893 10.24v0l-58.027 467.627zM488.107 430.507l52.907-418.133 105.813 78.507c5.12 3.413 10.24 5.12 15.36 6.827v0h3.413c10.24 0 18.773-5.12 25.6-11.947v0l157.013-209.92 71.68 52.907-157.013 209.92c-5.12 5.12-6.827 13.653-6.827 20.48v0 3.413c1.707 8.533 5.12 15.36 11.947 20.48v0l105.813 80.213-385.707 167.253zM368.64 427.093c6.827 0 13.653-5.12 15.36-13.653v-151.893c0-8.533-6.827-15.36-15.36-15.36-6.827 0-13.653 5.12-15.36 13.653v151.893c0 8.533 6.827 15.36 15.36 15.36zM278.187 464.64c5.12-5.12 5.12-13.653 1.707-18.773l-107.52-107.52c-5.12-5.12-15.36-5.12-20.48 0s-5.12 13.653-1.707 18.773l107.52 107.52c5.12 5.12 13.653 5.12 20.48 0zM662.187 570.453c8.533 0 15.36-6.827 15.36-15.36 0-6.827-5.12-13.653-13.653-15.36h-151.893c-8.533 0-15.36 6.827-15.36 15.36 0 6.827 5.12 13.653 13.653 15.36h151.893zM225.28 570.453c8.533 0 15.36-6.827 15.36-15.36 0-6.827-5.12-13.653-13.653-15.36h-151.893c-8.533 0-15.36 6.827-15.36 15.36 0 6.827 5.12 13.653 13.653 15.36h151.893zM170.667 775.253v0l107.52-107.52c5.12-5.12 5.12-15.36 0-20.48s-13.653-5.12-18.773-1.707l-3.413 1.707-105.813 105.813c-5.12 5.12-5.12 15.36 0 20.48s13.653 5.12 20.48 1.707zM587.093 773.547c5.12-5.12 5.12-13.653 1.707-18.773l-107.52-107.52c-5.12-5.12-15.36-5.12-20.48 0s-5.12 13.653-1.707 18.773l107.52 107.52c5.12 5.12 13.653 5.12 20.48 0zM368.64 864c6.827 0 13.653-5.12 15.36-13.653v-151.893c0-8.533-6.827-15.36-15.36-15.36-6.827 0-13.653 5.12-15.36 13.653v151.893c0 8.533 6.827 15.36 15.36 15.36z" />
<glyph unicode="&#xe91e;" glyph-name="Medicare" d="M419.84 864h-3.413c-22.187-1.707-40.96-20.48-40.96-44.373v-221.867l-192.853 110.933c-20.48 11.947-47.787 5.12-61.44-17.067l-97.28-167.253-1.707-3.413c-10.24-20.48-3.413-46.080 17.067-58.027l194.56-110.933-192.853-110.933c-20.48-11.947-29.013-39.253-17.067-61.44l97.28-167.253 1.707-3.413c13.653-18.773 39.253-25.6 59.733-13.653l192.853 110.933v-221.867c0-23.893 20.48-44.373 44.373-44.373h197.973c23.893 1.707 40.96 20.48 40.96 44.373v221.867l192.853-110.933c20.48-11.947 47.787-5.12 61.44 17.067l97.28 167.253 1.707 3.413c10.24 20.48 3.413 46.080-17.067 58.027l-194.56 110.933 192.853 110.933c20.48 11.947 29.013 39.253 17.067 61.44l-97.28 167.253-1.707 3.413c-13.653 18.773-39.253 25.6-59.733 13.653l-192.853-110.933v221.867c0 23.893-20.48 44.373-44.373 44.373h-194.56zM419.84 834.987h194.56c8.533 0 15.36-6.827 15.36-15.36v-249.173c0-11.947 11.947-18.773 22.187-13.653l215.040 124.587c6.827 3.413 15.36 1.707 20.48-5.12l97.28-167.253c3.413-6.827 1.707-15.36-5.12-20.48l-215.040-124.587c-10.24-5.12-10.24-20.48 0-25.6l213.333-122.88c6.827-3.413 8.533-13.653 5.12-20.48l-97.28-167.253c-3.413-6.827-13.653-10.24-20.48-5.12l-215.040 124.587c-10.24 5.12-22.187-1.707-22.187-13.653v-249.173c0-8.533-6.827-15.36-15.36-15.36h-192.853c-8.533 0-15.36 6.827-15.36 15.36v249.173c0 11.947-11.947 18.773-22.187 13.653l-215.040-126.293c-6.827-3.413-15.36-1.707-20.48 5.12l-95.573 168.96c-3.413 6.827-1.707 15.36 5.12 20.48l215.040 124.587c10.24 5.12 10.24 20.48 0 25.6l-215.040 122.88c-6.827 3.413-8.533 13.653-5.12 20.48l97.28 167.253c3.413 6.827 13.653 8.533 20.48 5.12l215.040-124.587c10.24-5.12 22.187 1.707 22.187 13.653v249.173c-1.707 8.533 5.12 15.36 13.653 15.36z" />
<glyph unicode="&#xe91f;" glyph-name="New-Content" d="M23.893-160c-3.413 0-6.827 1.707-10.24 5.12s-5.12 10.24-3.413 15.36l88.747 278.187c0 1.707 1.707 5.12 3.413 6.827l704.853 704.853c5.12 5.12 15.36 5.12 20.48 0l191.147-191.147c3.413-3.413 5.12-6.827 5.12-10.24s-1.707-8.533-5.12-10.24l-706.56-706.56c-1.707-1.707-3.413-3.413-6.827-3.413l-278.187-88.747c-1.707 0-1.707 0-3.413 0zM124.587 126.72l-78.507-249.173 249.173 78.507 694.613 694.613-170.667 170.667-694.613-694.613zM122.88-127.573c-3.413 0-6.827 1.707-10.24 5.12l-66.56 66.56c-5.12 5.12-5.12 15.36 0 20.48s15.36 5.12 20.48 0l66.56-66.56c5.12-5.12 5.12-15.36 0-20.48-3.413-5.12-6.827-5.12-10.24-5.12zM896 522.667c-3.413 0-6.827 1.707-10.24 5.12l-191.147 189.44c-5.12 5.12-5.12 15.36 0 20.48s15.36 5.12 20.48 0l191.147-191.147c5.12-5.12 5.12-15.36 0-20.48-3.413-3.413-6.827-3.413-10.24-3.413zM302.080-71.253c-3.413 0-6.827 1.707-10.24 5.12l-191.147 189.44c-5.12 5.12-5.12 15.36 0 20.48s15.36 5.12 20.48 0l191.147-191.147c5.12-5.12 5.12-15.36 0-20.48-1.707-1.707-6.827-3.413-10.24-3.413zM206.507 24.32c-3.413 0-6.827 1.707-10.24 5.12-5.12 5.12-5.12 15.36 0 20.48l593.92 592.213c5.12 5.12 15.36 5.12 20.48 0s5.12-15.36 0-20.48l-593.92-593.92c-1.707-3.413-6.827-3.413-10.24-3.413z" />
<glyph unicode="&#xe920;" glyph-name="Practice-Finances" d="M657.067 821.333h6.827c199.68 0 360.107-54.613 360.107-128v0-530.773c0-75.093-163.84-129.707-366.933-129.707-32.427 0-64.853 1.707-95.573 3.413-52.907-87.040-148.48-143.36-257.707-143.36-167.253 0-303.787 136.533-303.787 303.787 0 163.84 128 296.96 290.133 303.787v196.267c3.413 73.387 167.253 124.587 366.933 124.587v0zM303.787 473.173c-153.6 0-276.48-124.587-276.48-276.48s124.587-276.48 276.48-276.48c153.6 0 276.48 124.587 276.48 276.48 0 40.96-8.533 78.507-23.893 112.64 0 0 0 0 0 0-44.373 97.28-139.947 163.84-252.587 163.84zM657.067 165.973c-17.067 0-34.133 0-51.2 1.707-3.413-37.547-13.653-71.68-29.013-104.107 25.6-1.707 52.907-3.413 80.213-3.413 184.32 0 336.213 47.787 339.627 98.987v83.627c-54.613-46.080-186.027-76.8-339.627-76.8zM657.067 299.093c-22.187 0-46.080 0-68.267 1.707 11.947-32.427 18.773-66.56 18.773-104.107 0-1.707 0-1.707 0-3.413h-13.653c20.48-1.707 40.96-1.707 63.147-1.707 187.733 0 339.627 49.493 339.627 102.4v81.92c-54.613-46.080-186.027-76.8-339.627-76.8zM474.453 447.573v0c44.373-30.72 78.507-71.68 102.4-119.467h-8.533c29.013-1.707 58.027-3.413 87.040-3.413 187.733 0 339.627 49.493 339.627 102.4v81.92c-52.907-46.080-182.613-76.8-332.8-78.507h-6.827c-64.853 1.707-126.293 6.827-180.907 17.067zM317.44 642.133v-81.92c0-51.2 148.48-100.693 332.8-102.4h8.533c187.733 0 339.627 49.493 339.627 102.4v81.92c-52.907-46.080-177.493-76.8-324.267-78.507v0h-15.36c-155.307 0-286.72 30.72-341.333 78.507zM317.44 510.72v-10.24c5.12 0 8.533 0 13.653-1.707-5.12 3.413-10.24 6.827-13.653 11.947zM657.067 795.733h-8.533c-184.32-1.707-332.8-51.2-332.8-102.4 0-52.907 151.893-102.4 339.627-102.4s339.627 49.493 339.627 102.4c1.707 51.2-150.187 102.4-337.92 102.4v0zM325.973 375.893v-40.96c11.947 0 22.187-3.413 34.133-10.24s20.48-13.653 27.307-20.48l-27.307-34.133c-17.067 20.48-35.84 22.187-42.667 22.187-8.533 0-20.48-1.707-27.307-10.24-5.12-5.12-8.533-11.947-8.533-18.773 0-8.533 3.413-13.653 10.24-18.773 5.12-3.413 11.947-6.827 34.133-17.067 17.067-6.827 35.84-13.653 49.493-27.307 15.36-13.653 20.48-30.72 20.48-51.2 0-25.6-10.24-47.787-23.893-61.44-11.947-11.947-29.013-20.48-46.080-23.893v-46.080h-34.133v44.373c-22.187 1.707-40.96 10.24-51.2 18.773-10.24 6.827-20.48 15.36-30.72 30.72l30.72 30.72c5.12-8.533 13.653-18.773 23.893-23.893 10.24-8.533 22.187-11.947 37.547-11.947 10.24 0 22.187 1.707 30.72 10.24 6.827 6.827 10.24 17.067 10.24 25.6 0 10.24-5.12 17.067-10.24 22.187s-23.893 13.653-29.013 15.36c-11.947 5.12-39.253 17.067-54.613 30.72-13.653 11.947-18.773 25.6-18.773 47.787 0 18.773 5.12 35.84 18.773 49.493 8.533 10.24 22.187 20.48 42.667 25.6v40.96h34.133z" />
<glyph unicode="&#xe921;" glyph-name="quiz-gray" d="M138.24 244.48c-10.24-10.24-25.6-10.24-35.84 0l-97.28 97.28c-5.12 10.24-5.12 25.6 0 35.84l25.6 25.6c10.24 10.24 25.6 10.24 35.84 0l56.32-56.32 143.36 143.36c10.24 10.24 25.6 10.24 35.84 0l25.6-25.6c10.24-10.24 10.24-25.6 0-35.84l-189.44-184.32zM998.4 597.76h-588.8c-15.36 0-25.6 10.24-25.6 20.48v66.56c0 10.24 10.24 25.6 25.6 25.6h593.92c10.24 0 20.48-10.24 20.48-25.6v-61.44c0-15.36-10.24-25.6-25.6-25.6zM998.4 275.2h-588.8c-15.36 0-25.6 10.24-25.6 25.6v61.44c0 15.36 10.24 25.6 25.6 25.6h593.92c15.36 0 25.6-10.24 25.6-25.6v-61.44c-5.12-15.36-15.36-25.6-30.72-25.6zM998.4-42.24h-588.8c-15.36 0-25.6 10.24-25.6 25.6v61.44c0 15.36 10.24 25.6 25.6 25.6h593.92c15.36 0 25.6-10.24 25.6-25.6v-61.44c-5.12-15.36-15.36-25.6-30.72-25.6zM138.24-78.080c-10.24-10.24-25.6-10.24-35.84 0l-102.4 102.4c-10.24 10.24-10.24 25.6 0 35.84l25.6 25.6c10.24 10.24 25.6 10.24 35.84 0l56.32-56.32 143.36 143.36c10.24 10.24 25.6 10.24 35.84 0l25.6-25.6c10.24-10.24 10.24-25.6 0-35.84l-184.32-189.44zM138.24 561.92c-10.24-10.24-25.6-10.24-35.84 0l-20.48 25.6-76.8 76.8c-5.12 10.24-5.12 25.6 0 30.72l25.6 25.6c10.24 10.24 25.6 10.24 35.84 0l56.32-56.32 143.36 143.36c10.24 5.12 25.6 5.12 35.84 0l25.6-25.6c10.24-10.24 10.24-25.6 0-35.84l-189.44-184.32z" />
<glyph unicode="&#xe922;" glyph-name="Recommend" d="M500.053 227.413c25.6 0 47.787-20.48 47.787-47.787s-22.187-47.787-47.787-47.787v0h-105.813c-15.36 0-29.013-13.653-29.013-29.013 0-13.653 8.533-25.6 22.187-29.013v0l175.787-42.667c10.24-1.707 18.773 0 27.307 5.12v0l192.853 124.587c27.307 17.067 61.44 11.947 81.92-10.24 25.6-29.013 20.48-73.387-10.24-95.573v0l-283.307-203.093c-13.653-10.24-32.427-13.653-49.493-10.24v0l-443.733 107.52c-6.827 1.707-10.24 6.827-10.24 15.36v0 145.067c0 6.827 5.12 13.653 11.947 15.36v0l37.547 8.533c17.067 3.413 32.427 11.947 46.080 22.187v0l44.373 32.427c34.133 25.6 76.8 39.253 119.467 39.253v0h172.373zM500.053 196.693h-174.080c-35.84 0-71.68-11.947-100.693-34.133v0l-46.080-32.427c-17.067-11.947-35.84-22.187-56.32-27.307v0l-25.6-6.827v-119.467l431.787-105.813c6.827-1.707 15.36 0 22.187 3.413v0l3.413 1.707 283.307 203.093c17.067 11.947 18.773 35.84 5.12 51.2-11.947 11.947-29.013 15.36-44.373 5.12v0l-192.853-124.587c-15.36-10.24-34.133-13.653-51.2-8.533v0l-175.787 42.667c-25.6 6.827-44.373 30.72-44.373 58.027 0 32.427 27.307 59.733 59.733 59.733v0h105.813c10.24 0 17.067 8.533 17.067 17.067s-8.533 17.067-17.067 17.067v0zM691.2 259.84v-30.72h-83.627v30.72h83.627zM718.507 314.453v-30.72h-138.24v30.72h138.24zM650.24 736c92.16 0 165.547-75.093 165.547-165.547 0-37.547-11.947-73.387-35.84-102.4-15.36-20.48-34.133-46.080-49.493-71.68l1.707 3.413v-44.373c0-6.827-5.12-13.653-13.653-15.36v0h-138.24c-8.533 0-15.36 6.827-15.36 15.36v0 46.080l-5.12 8.533c-10.24 15.36-20.48 32.427-32.427 46.080v0l-11.947 17.067c-20.48 27.307-32.427 61.44-32.427 97.28 0 90.453 75.093 165.547 167.253 165.547zM650.24 705.28c-75.093 0-136.533-61.44-136.533-136.533 0-30.72 10.24-59.733 29.013-83.627 18.773-22.187 35.84-47.787 49.493-73.387 1.707-1.707 1.707-5.12 1.707-6.827v0-35.84h107.52v34.133c0 1.707 0 3.413 1.707 5.12v0l1.707 1.707c15.36 25.6 34.133 52.907 51.2 75.093 18.773 23.893 29.013 52.907 29.013 83.627 0 75.093-59.733 136.533-134.827 136.533zM846.507 471.467l68.267-39.253-15.36-25.6-68.267 39.253 15.36 25.6zM452.267 471.467l15.36-25.6-68.267-39.253-15.36 25.6 68.267 39.253zM698.027 594.347l22.187-22.187-81.92-81.92c-5.12-5.12-13.653-5.12-20.48-1.707l-40.96 40.96 22.187 22.187 27.307-27.307 71.68 69.973zM947.2 582.4v-30.72h-78.507v30.72h78.507zM430.080 582.4v-30.72h-78.507v30.72h78.507zM399.36 729.173l68.267-39.253-15.36-25.6-68.267 39.253 15.36 25.6zM899.413 729.173l15.36-25.6-68.267-39.253-15.36 25.6 68.267 39.253zM513.707 831.573l39.253-68.267-25.6-15.36-39.253 68.267 25.6 15.36zM785.067 831.573l25.6-15.36-39.253-68.267-25.6 15.36 39.253 68.267zM663.893 864v-78.507h-30.72v78.507h30.72z" />
<glyph unicode="&#xe923;" glyph-name="Report" d="M993.28 814.507c6.827 0 13.653-5.12 15.36-13.653v-629.76c18.773-27.307 20.48-63.147 3.413-92.16l-1.707-3.413-92.16-128c-17.067-23.893-52.907-29.013-76.8-11.947-15.36 10.24-22.187 25.6-22.187 40.96v204.8c0 11.947 13.653 18.773 23.893 11.947l1.707-1.707 87.040-81.92c5.12-5.12 6.827-11.947 3.413-18.773l-1.707-1.707-78.507-95.573c-8.533-10.24-6.827-25.6 3.413-32.427s23.893-6.827 30.72 3.413l1.707 1.707 92.16 128c13.653 18.773 11.947 44.373-1.707 63.147 0 0-1.707 1.707-1.707 1.707 0 1.707-1.707 1.707-1.707 1.707l-3.413 1.707-146.773 129.707c-6.827 5.12-6.827 15.36-1.707 22.187 5.12 5.12 13.653 6.827 18.773 3.413l1.707-1.707 129.707-112.64v583.68h-856.747v-42.667c0-10.24-5.12-17.067-11.947-17.067h-1.707c-6.827 0-13.653 5.12-15.36 13.653v58.027c0 8.533 5.12 13.653 11.947 15.36h890.88zM401.067 326.4l3.413-1.707 104.107-32.427c11.947-3.413 25.6-5.12 39.253-1.707l5.12 1.707 90.453 27.307c8.533 1.707 17.067-1.707 18.773-10.24 1.707-6.827-1.707-15.36-8.533-18.773h-1.707l-90.453-27.307c-18.773-5.12-37.547-5.12-56.32-1.707l-5.12 1.707-104.107 32.427c-8.533 3.413-18.773-1.707-23.893-10.24v-1.707l-1.707-5.12c-3.413-8.533 1.707-18.773 10.24-23.893h1.707l121.173-40.96c13.653-5.12 27.307-5.12 40.96-1.707l5.12 1.707 95.573 27.307c8.533 3.413 18.773-3.413 18.773-11.947v-278.187c0-8.533-6.827-15.36-15.36-15.36-6.827 0-13.653 5.12-15.36 13.653v259.413l-76.8-22.187c-18.773-5.12-39.253-5.12-58.027 0l-5.12 1.707-121.173 40.96c-23.893 8.533-37.547 34.133-32.427 59.733l1.707 3.413 1.707 5.12c8.533 20.48 34.133 34.133 58.027 29.013zM849.92 147.2v-112.64l51.2 63.147-51.2 49.493zM104.107 558.507c6.827 0 13.653-5.12 15.36-13.653v-442.027h443.733c6.827 0 13.653-5.12 15.36-13.653v-1.707c0-6.827-5.12-13.653-13.653-15.36h-460.8c-6.827 0-13.653 5.12-15.36 13.653v457.387c1.707 8.533 8.533 15.36 15.36 15.36zM744.107 544.853h5.12c59.733-1.707 107.52-51.2 107.52-110.933 0-61.44-49.493-110.933-110.933-110.933s-110.933 49.493-110.933 110.933c0 59.733 47.787 109.227 107.52 110.933h1.707zM744.107 515.84h-3.413c-42.667-1.707-76.8-37.547-76.8-81.92s35.84-81.92 81.92-81.92 81.92 35.84 81.92 81.92c0 44.373-34.133 78.507-76.8 81.92h-6.827zM307.2 686.507c88.747 11.947 168.96-51.2 180.907-139.947s-51.2-168.96-139.947-180.907c-88.747-11.947-168.96 51.2-180.907 139.947-3.413 25.6 0 51.2 8.533 75.093l-109.227 51.2c-6.827 3.413-10.24 11.947-6.827 20.48 3.413 6.827 11.947 10.24 18.773 6.827h1.707l109.227-51.2c23.893 40.96 66.56 71.68 117.76 78.507zM457.387 543.147c-8.533 71.68-75.093 122.88-146.773 112.64-40.96-5.12-75.093-29.013-93.867-61.44l37.547-18.773c13.653 20.48 35.84 34.133 61.44 37.547 49.493 6.827 93.867-27.307 98.987-76.8v0-5.12c3.413-47.787-30.72-88.747-76.8-95.573-49.493-6.827-93.867 27.307-98.987 76.8-1.707 11.947 0 23.893 1.707 35.84l-37.547 18.773c-6.827-18.773-8.533-37.547-5.12-58.027 8.533-71.68 75.093-122.88 146.773-112.64 71.68 8.533 121.173 75.093 112.64 146.773zM385.707 536.32c-5.12 30.72-34.133 51.2-64.853 47.787-15.36-1.707-29.013-10.24-37.547-20.48l51.2-23.893c6.827-3.413 10.24-11.947 6.827-20.48-3.413-6.827-11.947-10.24-18.773-8.533h-1.707l-51.2 23.893c-1.707-5.12-1.707-11.947 0-18.773 3.413-32.427 34.133-54.613 66.56-51.2s54.613 34.133 51.2 66.56v0l-1.707 5.12zM675.84 623.36c8.533 0 15.36-6.827 15.36-15.36 0-6.827-5.12-13.653-13.653-15.36h-141.653c-8.533 0-15.36 6.827-15.36 15.36 0 6.827 5.12 13.653 13.653 15.36h141.653zM797.013 712.107c8.533 0 15.36-6.827 15.36-15.36 0-6.827-5.12-13.653-13.653-15.36h-262.827c-8.533 0-15.36 6.827-15.36 15.36 0 6.827 5.12 13.653 13.653 15.36h262.827zM85.333 592.64c-3.413 0-5.12 0-8.533 1.707l-68.267 32.427c-5.12 1.707-8.533 6.827-8.533 13.653s5.12 11.947 10.24 11.947l29.013 8.533-11.947 32.427c-3.413 5.12-1.707 11.947 3.413 17.067s10.24 5.12 17.067 1.707l71.68-37.547c3.413-1.707 6.827-5.12 6.827-10.24l10.24-39.253c1.707-6.827-1.707-13.653-8.533-17.067l-40.96-15.36c0 0-1.707 0-1.707 0z" />
<glyph unicode="&#xe924;" glyph-name="Sustain" d="M940.373 541.44c27.307 0 47.787-22.187 47.787-47.787v0-604.16c0-27.307-22.187-47.787-47.787-47.787v0h-90.453c-27.307 0-47.787 22.187-47.787 47.787v0 602.453c0 27.307 22.187 47.787 47.787 47.787v0h90.453zM675.84 450.987c27.307 0 47.787-22.187 47.787-47.787v0-515.413c0-27.307-22.187-47.787-47.787-47.787v0h-90.453c-27.307 0-47.787 22.187-47.787 47.787v0 515.413c0 27.307 22.187 47.787 47.787 47.787v0h90.453zM411.307 363.947c27.307 0 47.787-22.187 47.787-47.787v0-426.667c0-27.307-22.187-47.787-47.787-47.787v0h-90.453c-27.307 0-47.787 22.187-47.787 47.787v0 426.667c0 27.307 22.187 47.787 47.787 47.787v0h90.453zM148.48 242.773c27.307 0 47.787-22.187 47.787-47.787v0-305.493c0-27.307-22.187-47.787-47.787-47.787v0h-92.16c-27.307 0-47.787 22.187-47.787 47.787v0 303.787c0 27.307 22.187 47.787 47.787 47.787v0h92.16zM940.373 512.427h-90.453c-10.24 0-20.48-8.533-20.48-20.48v0-604.16c0-10.24 8.533-20.48 20.48-20.48v0h90.453c10.24 0 20.48 8.533 20.48 20.48v0 604.16c-1.707 11.947-10.24 20.48-20.48 20.48v0zM675.84 421.973h-90.453c-10.24 0-20.48-8.533-20.48-20.48v0-515.413c0-10.24 8.533-20.48 20.48-20.48v0h90.453c10.24 0 20.48 8.533 20.48 20.48v0 517.12c0 10.24-10.24 18.773-20.48 18.773v0zM411.307 334.933h-90.453c-10.24 0-20.48-8.533-20.48-20.48v0-426.667c0-10.24 8.533-20.48 20.48-20.48v0h90.453c10.24 0 20.48 8.533 20.48 20.48v0 426.667c0 11.947-8.533 20.48-20.48 20.48v0zM148.48 213.76h-92.16c-10.24 0-20.48-8.533-20.48-20.48v0-305.493c0-10.24 8.533-20.48 20.48-20.48v0h90.453c10.24 0 20.48 8.533 20.48 20.48v0 305.493c0 11.947-8.533 20.48-18.773 20.48v0zM974.507 864v0c0 0 0 0 0 0 1.707 0 1.707 0 1.707 0 1.707 0 1.707 0 3.413-1.707 0 0 0 0 0 0s0 0 1.707 0c0 0 0 0 0 0s0 0 1.707 0c0 0 0 0 0 0v0c0 0 0 0 0 0l-1.707 1.707c0 0 1.707-1.707 1.707-1.707s0 0 0 0 0 0 0 0 0 0 0-1.707c0 0 0 0 0 0 0-1.707 1.707-1.707 1.707-3.413v-160.427c0-8.533-6.827-13.653-13.653-13.653s-13.653 5.12-13.653 11.947v124.587c-114.347-116.053-302.080-220.16-537.6-312.32-90.453-35.84-180.907-66.56-267.947-93.867l-23.893-6.827c-15.36-5.12-29.013-8.533-44.373-13.653l-35.84-10.24c-10.24-3.413-17.067-5.12-23.893-6.827s-15.36 3.413-17.067 10.24c-1.707 6.827 3.413 15.36 10.24 17.067h20.48c5.12 1.707 11.947 3.413 20.48 5.12l20.48 5.12c20.48 5.12 42.667 11.947 66.56 20.48 87.040 27.307 177.493 58.027 266.24 92.16 233.813 92.16 419.84 194.56 530.773 307.2h-119.467c-6.827 0-13.653 5.12-13.653 11.947v1.707c0 6.827 5.12 13.653 11.947 13.653h1.707l151.893 3.413c0 0 0 0 0 0z" />
<glyph unicode="&#xe925;" glyph-name="Train" d="M448.853 864c237.227 0 430.080-191.147 435.2-426.667v-6.827c1.707-8.533 6.827-18.773 13.653-32.427l3.413-5.12c13.653-25.6 32.427-54.613 56.32-85.333l6.827-8.533c17.067-20.48 27.307-42.667 22.187-68.267-3.413-18.773-13.653-35.84-35.84-47.787-17.067-10.24-35.84-18.773-54.613-27.307l-11.947-5.12 1.707-8.533c3.413-44.373 5.12-87.040-1.707-121.173l-1.707-8.533c-10.24-56.32-80.213-76.8-175.787-76.8-13.653 0-20.48-3.413-22.187-17.067v-78.507h-30.72v75.093c0 34.133 22.187 49.493 49.493 51.2h17.067c73.387 1.707 126.293 18.773 133.12 51.2 6.827 34.133 5.12 81.92 1.707 131.413l-1.707 20.48 10.24 5.12c25.6 10.24 52.907 23.893 75.093 35.84 13.653 6.827 18.773 17.067 20.48 25.6 1.707 11.947-3.413 27.307-13.653 39.253l-3.413 3.413c-29.013 35.84-51.2 68.267-68.267 98.987-10.24 18.773-15.36 32.427-18.773 44.373l-1.707 3.413v3.413c0 223.573-182.613 404.48-404.48 404.48-223.573 0-404.48-180.907-404.48-404.48 0-68.267 17.067-134.827 49.493-194.56l5.12-8.533 10.24-18.773c3.413-3.413 5.12-8.533 10.24-15.36l37.547-59.733c22.187-37.547 34.133-56.32 42.667-76.8 10.24-22.187 17.067-54.613 23.893-92.16 3.413-27.307 6.827-54.613 8.533-83.627v-39.253h-30.72v23.893c0 5.12 0 8.533 0 13.653-1.707 27.307-3.413 56.32-8.533 81.92-5.12 35.84-11.947 64.853-20.48 85.333l-3.413 8.533c-8.533 17.067-18.773 35.84-39.253 69.973l-35.84 58.027c-5.12 8.533-8.533 15.36-13.653 22.187l-6.827 11.947c-39.253 61.44-59.733 136.533-59.733 213.333 0 240.64 194.56 435.2 435.2 435.2zM423.253 621.653c6.827 3.413 13.653 0 17.067-5.12v0l32.427-40.96 32.427 40.96c3.413 5.12 10.24 6.827 15.36 5.12v0h1.707l76.8-32.427c6.827-3.413 10.24-8.533 8.533-15.36v0l-5.12-51.2 51.2 5.12c6.827 0 11.947-1.707 15.36-6.827v0l1.707-1.707 32.427-78.507c3.413-6.827 0-13.653-5.12-17.067v0l-40.96-32.427 40.96-32.427c5.12-3.413 6.827-10.24 5.12-15.36v0-1.707l-32.427-76.8c-3.413-6.827-8.533-10.24-15.36-8.533v0l-51.2 5.12 5.12-51.2c0-6.827-1.707-11.947-6.827-15.36v0l-1.707-1.707-78.507-32.427c-6.827-3.413-13.653 0-17.067 5.12v0l-32.427 40.96-32.427-40.96c-3.413-5.12-10.24-6.827-15.36-5.12v0h-1.707l-76.8 32.427c-6.827 3.413-10.24 8.533-8.533 15.36v0l5.12 51.2-51.2-5.12c-6.827 0-11.947 1.707-15.36 6.827v0l-1.707 1.707-32.427 78.507c-3.413 6.827 0 13.653 5.12 17.067v0l40.96 32.427-40.96 32.427c-5.12 3.413-6.827 10.24-5.12 15.36v0 1.707l32.427 76.8c3.413 6.827 8.533 10.24 15.36 8.533v0l51.2-5.12-5.12 51.2c0 6.827 1.707 11.947 6.827 15.36v0l1.707 1.707 78.507 32.427zM423.253 589.227l-56.32-23.893 5.12-59.733c1.707-8.533-6.827-17.067-15.36-17.067v0h-1.707l-59.733 6.827-22.187-56.32 46.080-37.547c6.827-5.12 6.827-15.36 1.707-22.187v0l-1.707-1.707-46.080-37.547 23.893-56.32 59.733 5.12c8.533 1.707 17.067-6.827 17.067-15.36v0-1.707l-6.827-59.733 56.32-23.893 37.547 46.080c5.12 6.827 15.36 6.827 22.187 1.707v0l1.707-1.707 37.547-46.080 56.32 23.893-5.12 59.733c-1.707 8.533 6.827 17.067 15.36 17.067v0h1.707l59.733-6.827 23.893 56.32-46.080 37.547c-6.827 5.12-6.827 15.36-1.707 22.187v0l1.707 1.707 46.080 37.547-25.6 56.32-58.027-5.12c-8.533-1.707-17.067 6.827-17.067 15.36v0 1.707l6.827 59.733-56.32 23.893-37.547-46.080c-5.12-6.827-15.36-6.827-22.187-1.707v0l-3.413 1.707-37.547 46.080zM472.747 490.24c56.32 0 102.4-46.080 102.4-102.4s-46.080-102.4-102.4-102.4c-56.32 0-102.4 46.080-102.4 102.4 0 58.027 46.080 102.4 102.4 102.4zM472.747 459.52c-39.253 0-71.68-32.427-71.68-71.68s32.427-71.68 71.68-71.68c39.253 0 71.68 32.427 71.68 71.68 0 40.96-32.427 71.68-71.68 71.68z" />
<glyph unicode="&#xe926;" glyph-name="Webinar" d="M250.88-57.6c-8.533 0-15.36 6.827-15.36 15.36 0 6.827 5.12 13.653 13.653 15.36h247.467v150.187h-482.987c-6.827 0-13.653 5.12-15.36 13.653v648.533c0 8.533 6.827 15.36 15.36 15.36v0h994.987c8.533 0 15.36-6.827 15.36-15.36v0-650.24c0-8.533-6.827-15.36-15.36-15.36v0h-482.987v-150.187h245.76c8.533 0 15.36-6.827 15.36-15.36 0-6.827-5.12-13.653-13.653-15.36h-522.24zM994.987 771.84h-965.973v-619.52h964.267v619.52zM885.76 683.093c8.533 0 15.36-6.827 15.36-15.36v0-413.013c0-8.533-6.827-15.36-15.36-15.36v0h-747.52c-8.533 0-15.36 6.827-15.36 15.36v0 413.013c0 8.533 6.827 15.36 15.36 15.36v0h747.52zM870.4 652.373h-716.8v-384h716.8v384z" />
<glyph unicode="&#xe927;" glyph-name="certificates" d="M791.893 377.6c63.147 0 114.347-51.2 114.347-114.347 0-34.133-15.36-64.853-39.253-85.333l22.187-238.933-97.28 59.733-97.28-59.733 22.187 238.933c-23.893 20.48-39.253 51.2-39.253 85.333 0 63.147 51.2 114.347 114.347 114.347zM837.973 159.147c-13.653-6.827-30.72-10.24-46.080-10.24-17.067 0-32.427 3.413-46.080 10.24l-15.36-165.547 61.44 37.547 61.44-37.547-15.36 165.547zM1008.64 664.32c6.827 0 13.653-5.12 15.36-13.653v-614.4c0-6.827-5.12-13.653-13.653-15.36h-100.693v29.013h83.627v583.68h-957.44v-583.68h617.813v-29.013h-633.173c-6.827 0-13.653 5.12-15.36 13.653v614.4c0 6.827 5.12 13.653 13.653 15.36h989.867zM593.92 200.107c8.533 0 15.36-6.827 15.36-15.36 0-6.827-5.12-13.653-13.653-15.36h-455.68c-8.533 0-15.36 6.827-15.36 15.36 0 6.827 5.12 13.653 11.947 13.653h457.387zM791.893 346.88c-46.080 0-83.627-37.547-83.627-83.627s37.547-83.627 83.627-83.627c46.080 0 83.627 37.547 83.627 83.627s-37.547 83.627-83.627 83.627zM593.92 357.12c8.533 0 15.36-6.827 15.36-15.36 0-6.827-5.12-13.653-13.653-15.36h-455.68c-8.533 0-15.36 6.827-15.36 15.36 0 6.827 5.12 13.653 13.653 15.36h455.68zM890.88 515.84c8.533 0 15.36-6.827 15.36-15.36 0-6.827-5.12-13.653-13.653-15.36h-752.64c-8.533 0-15.36 6.827-15.36 15.36 0 6.827 5.12 13.653 13.653 15.36h752.64z" />
<glyph unicode="&#xe928;" glyph-name="Blog" d="M447.147 715.52c6.827 10.24 22.187 8.533 25.6-1.707v0l302.080-730.453c5.12-11.947-5.12-22.187-17.067-20.48v0l-406.187 95.573-211.627-87.040c-6.827-3.413-15.36 0-18.773 6.827l-1.707 1.707-110.933 273.067c-3.413 6.827 0 17.067 8.533 18.773v0l211.627 87.040 218.453 356.693zM455.68 674.56l-203.093-327.68 107.52-259.413 375.467-88.747-279.893 675.84zM228.693 328.107l-187.733-78.507 102.4-245.76 187.733 78.507-102.4 245.76zM761.173 761.6c218.453-90.453 320.853-339.627 230.4-558.080-3.413-6.827-11.947-11.947-18.773-8.533s-11.947 11.947-8.533 18.773c83.627 203.093-11.947 435.2-215.040 518.827-6.827 3.413-11.947 11.947-8.533 18.773 3.413 10.24 11.947 13.653 20.48 10.24zM692.907 599.467c128-52.907 189.44-199.68 134.827-327.68-3.413-6.827-11.947-11.947-18.773-8.533s-10.24 11.947-8.533 20.48c46.080 112.64-6.827 242.347-119.467 288.427-6.827 3.413-11.947 11.947-8.533 18.773 5.12 8.533 13.653 11.947 20.48 8.533z" />
<glyph unicode="&#xe929;" glyph-name="Basics" d="M587.093 853.76c15.36 17.067 46.080 10.24 51.2-13.653v0l22.187-102.4 100.693 32.427c22.187 6.827 42.667-11.947 37.547-34.133v0-1.707l-32.427-100.693 102.4-22.187c22.187-5.12 30.72-32.427 15.36-47.787v0l-1.707-1.707-78.507-71.68 78.507-71.68c17.067-15.36 10.24-42.667-10.24-49.493v0h-3.413l-102.4-22.187 32.427-100.693c6.827-22.187-11.947-42.667-34.133-37.547v0h-1.707l-23.893 6.827 78.507-293.547c3.413-11.947-6.827-20.48-18.773-18.773h-1.707l-124.587 51.2-81.92-105.813c-6.827-8.533-20.48-6.827-25.6 3.413v1.707l-47.787 177.493-47.787-177.493c-3.413-11.947-17.067-15.36-25.6-6.827l-1.707 1.707-83.627 102.4-124.587-51.2c-10.24-5.12-22.187 5.12-20.48 15.36v1.707l78.507 293.547-23.893-6.827c-20.48-6.827-40.96 11.947-37.547 32.427v3.413l32.427 100.693-102.4 22.187c-22.187 5.12-30.72 32.427-15.36 47.787v0l1.707 1.707 78.507 71.68-78.507 71.68c-17.067 15.36-10.24 42.667 10.24 49.493v0h3.413l102.4 22.187-32.427 100.693c-6.827 22.187 11.947 42.667 34.133 37.547v0h1.707l100.693-32.427 22.187 102.4c10.24 29.013 37.547 35.84 52.907 22.187v0l1.707-3.413 71.68-78.507 71.68 78.507zM370.347 235.947l-44.373-13.653-75.093-281.6 107.52 42.667c5.12 1.707 11.947 1.707 15.36-3.413l1.707-1.707 71.68-90.453 52.907 199.68-18.773 71.68-37.547-39.253c-15.36-15.36-40.96-10.24-49.493 8.533v5.12l-23.893 102.4zM660.48 235.947l-22.187-102.4c-5.12-22.187-32.427-30.72-47.787-15.36v0l-1.707 1.707-71.68 78.507-10.24-11.947 80.213-296.96 71.68 90.453c3.413 5.12 10.24 6.827 15.36 5.12h1.707l107.52-42.667-75.093 281.6-47.787 11.947zM609.28 833.28l-71.68-76.8c-11.947-11.947-32.427-11.947-42.667 0v0l-71.68 76.8-22.187-102.4c-3.413-15.36-18.773-25.6-34.133-22.187v0h-3.413l-100.693 30.72 30.72-100.693c5.12-15.36-3.413-32.427-18.773-37.547v0h-3.413l-102.4-22.187 76.8-71.68c11.947-10.24 11.947-29.013 1.707-40.96v0l-1.707-1.707-76.8-71.68 102.4-22.187c15.36-3.413 25.6-18.773 22.187-35.84v0-3.413l-32.427-98.987 100.693 30.72c15.36 5.12 32.427-3.413 37.547-18.773v0-3.413l22.187-102.4 71.68 76.8c10.24 11.947 29.013 11.947 40.96 1.707v0l1.707-1.707 71.68-76.8 22.187 102.4c3.413 15.36 18.773 25.6 34.133 22.187v0h3.413l100.693-30.72-30.72 100.693c-5.12 15.36 3.413 32.427 18.773 37.547v0h3.413l102.4 22.187-76.8 71.68c-11.947 10.24-11.947 29.013-1.707 40.96v0l1.707 1.707 76.8 71.68-102.4 22.187c-15.36 3.413-25.6 18.773-22.187 35.84v0 3.413l30.72 100.693-100.693-32.427c-13.653-3.413-30.72 5.12-35.84 18.773v0 3.413l-22.187 102.4zM515.413 642.133c85.333 0 155.307-69.973 155.307-155.307s-69.973-155.307-155.307-155.307c-85.333 0-155.307 69.973-155.307 155.307s69.973 155.307 155.307 155.307zM515.413 613.12c-69.973 0-126.293-56.32-126.293-126.293s56.32-126.293 126.293-126.293c69.973 0 126.293 56.32 126.293 126.293s-56.32 126.293-126.293 126.293z" />
<glyph unicode="&#xe92a;" glyph-name="Assessment" d="M967.68 864c30.72 0 54.613-23.893 54.613-54.613v0-914.773c0-30.72-23.893-54.613-54.613-54.613v0h-167.253c-30.72 0-54.613 23.893-54.613 54.613v0 914.773c0 30.72 23.893 54.613 54.613 54.613v0h167.253zM223.573 655.787c30.72 0 54.613-23.893 54.613-54.613v0-704.853c0-30.72-23.893-54.613-54.613-54.613v0h-168.96c-29.013-1.707-54.613 22.187-54.613 52.907v0 704.853c0 30.72 23.893 54.613 54.613 54.613v0h168.96zM595.627 362.24c30.72 0 54.613-23.893 54.613-54.613v0-411.307c0-30.72-23.893-54.613-54.613-54.613v0h-168.96c-30.72 0-54.613 23.893-54.613 54.613v0 411.307c0 30.72 23.893 54.613 54.613 54.613v0h168.96zM967.68 834.987h-167.253c-13.653 0-25.6-11.947-25.6-25.6v0-914.773c0-13.653 11.947-25.6 25.6-25.6v0h167.253c13.653 0 25.6 11.947 25.6 25.6v0 914.773c-1.707 13.653-11.947 25.6-25.6 25.6v0zM223.573 625.067h-168.96c-13.653 0-25.6-11.947-25.6-25.6v0-704.853c0-13.653 11.947-25.6 25.6-25.6v0h167.253c13.653 0 25.6 11.947 25.6 25.6v0 704.853c0 15.36-10.24 25.6-23.893 25.6v0zM595.627 331.52h-168.96c-13.653 0-25.6-11.947-25.6-25.6v0-411.307c0-13.653 11.947-25.6 25.6-25.6v0h167.253c13.653 0 25.6 11.947 25.6 25.6v0 413.013c0 13.653-10.24 23.893-23.893 23.893v0z" />
<glyph unicode="&#xe92b;" glyph-name="Bus-Essentials" d="M512-160c-281.6 0-512 230.4-512 512s230.4 512 512 512c281.6 0 512-230.4 512-512s-230.4-512-512-512zM512 834.987c-266.24 0-482.987-216.747-482.987-482.987s216.747-482.987 482.987-482.987c266.24 0 482.987 216.747 482.987 482.987s-216.747 482.987-482.987 482.987zM512-40.533c-216.747 0-392.533 175.787-392.533 392.533s175.787 392.533 392.533 392.533c216.747 0 392.533-175.787 392.533-392.533s-175.787-392.533-392.533-392.533zM512 715.52c-199.68 0-363.52-163.84-363.52-363.52s162.133-363.52 363.52-363.52c199.68 0 363.52 162.133 363.52 363.52 0 199.68-163.84 363.52-363.52 363.52zM592.213 329.813c-3.413 0-5.12 0-8.533 1.707-6.827 5.12-8.533 13.653-5.12 20.48l112.64 180.907-179.2-112.64c-6.827-5.12-15.36-1.707-20.48 5.12s-1.707 15.36 5.12 20.48l235.52 148.48c5.12 3.413 13.653 3.413 18.773-1.707s5.12-11.947 1.707-18.773l-148.48-235.52c-1.707-6.827-6.827-8.533-11.947-8.533zM283.307 109.653c-3.413 0-6.827 1.707-10.24 5.12-5.12 5.12-5.12 11.947-1.707 18.773l148.48 235.52c5.12 6.827 13.653 8.533 20.48 5.12 6.827-5.12 8.533-13.653 5.12-20.48l-112.64-180.907 179.2 110.933c6.827 5.12 15.36 1.707 20.48-5.12s1.707-15.36-5.12-20.48l-235.52-148.48c-1.707 0-5.12 0-8.533 0zM512 256.427c-52.907 0-95.573 42.667-95.573 95.573s42.667 95.573 95.573 95.573c52.907 0 95.573-42.667 95.573-95.573s-42.667-95.573-95.573-95.573zM512 416.853c-35.84 0-64.853-29.013-64.853-64.853s29.013-64.853 64.853-64.853c35.84 0 64.853 29.013 64.853 64.853s-29.013 64.853-64.853 64.853zM512 616.533c-8.533 0-15.36 6.827-15.36 15.36v97.28c0 8.533 6.827 15.36 15.36 15.36s15.36-6.827 15.36-15.36v-98.987c0-6.827-6.827-13.653-15.36-13.653zM512-40.533c-8.533 0-15.36 6.827-15.36 15.36v98.987c0 8.533 6.827 15.36 15.36 15.36s15.36-6.827 15.36-15.36v-98.987c0-8.533-6.827-15.36-15.36-15.36zM889.173 336.64h-98.987c-8.533 0-15.36 6.827-15.36 15.36s6.827 15.36 15.36 15.36h98.987c8.533 0 15.36-6.827 15.36-15.36s-6.827-15.36-15.36-15.36zM233.813 336.64h-98.987c-8.533 0-15.36 6.827-15.36 15.36s6.827 15.36 15.36 15.36h98.987c8.533 0 15.36-6.827 15.36-15.36s-8.533-15.36-15.36-15.36z" />
<glyph unicode="&#xe92c;" glyph-name="calendar-kmcu" horiz-adv-x="943" d="M914.863 506.947h-889.263c-10.779 0-21.558 8.084-21.558 21.558s13.474 18.863 24.253 18.863h889.263c10.779 0 21.558-8.084 21.558-21.558s-13.474-18.863-24.253-18.863zM726.232 633.6c-10.779 0-21.558 8.084-21.558 21.558v188.632c0 10.779 8.084 21.558 21.558 21.558 10.779 0 21.558-8.084 21.558-21.558v-191.326c-2.695-10.779-10.779-18.863-21.558-18.863zM216.926 633.6c-10.779 0-21.558 8.084-21.558 21.558v188.632c0 10.779 8.084 21.558 21.558 21.558s21.558-10.779 21.558-21.558v-191.326c0-10.779-8.084-18.863-21.558-18.863zM914.863-158.653h-889.263c-10.779 0-21.558 8.084-21.558 21.558v889.263c0 10.779 8.084 21.558 21.558 21.558h889.263c10.779 0 21.558-8.084 21.558-21.558v-889.263c0-13.474-10.779-21.558-21.558-21.558zM47.158-118.232h846.147v846.147h-846.147v-846.147zM251.958 353.347c0-21.558-18.863-40.421-40.421-40.421s-40.421 18.863-40.421 40.421c0 21.558 18.863 40.421 40.421 40.421 24.253 2.695 40.421-16.168 40.421-40.421zM427.116 353.347c0-21.558-18.863-40.421-40.421-40.421s-40.421 18.863-40.421 40.421c0 21.558 18.863 40.421 40.421 40.421 21.558 2.695 40.421-16.168 40.421-40.421zM599.579 353.347c0-21.558-18.863-40.421-40.421-40.421s-40.421 18.863-40.421 40.421c0 21.558 18.863 40.421 40.421 40.421 21.558 2.695 40.421-16.168 40.421-40.421zM772.042 353.347c0-21.558-18.863-40.421-40.421-40.421s-40.421 18.863-40.421 40.421c0 21.558 18.863 40.421 40.421 40.421 21.558 2.695 40.421-16.168 40.421-40.421zM251.958 188.968c0-21.558-18.863-40.421-40.421-40.421s-40.421 18.863-40.421 40.421c0 21.558 18.863 40.421 40.421 40.421 24.253 2.695 40.421-16.168 40.421-40.421zM427.116 188.968c0-21.558-18.863-40.421-40.421-40.421s-40.421 18.863-40.421 40.421c0 21.558 18.863 40.421 40.421 40.421 21.558 2.695 40.421-16.168 40.421-40.421zM599.579 188.968c0-21.558-18.863-40.421-40.421-40.421s-40.421 18.863-40.421 40.421c0 21.558 18.863 40.421 40.421 40.421 21.558 2.695 40.421-16.168 40.421-40.421zM772.042 188.968c0-21.558-18.863-40.421-40.421-40.421s-40.421 18.863-40.421 40.421c0 21.558 18.863 40.421 40.421 40.421 21.558 2.695 40.421-16.168 40.421-40.421zM251.958 27.284c0-21.558-18.863-40.421-40.421-40.421s-40.421 18.863-40.421 40.421c0 21.558 18.863 40.421 40.421 40.421 24.253 0 40.421-18.863 40.421-40.421zM427.116 27.284c0-21.558-18.863-40.421-40.421-40.421s-40.421 18.863-40.421 40.421c0 21.558 18.863 40.421 40.421 40.421s40.421-18.863 40.421-40.421zM599.579 27.284c0-21.558-18.863-40.421-40.421-40.421s-40.421 18.863-40.421 40.421c0 21.558 18.863 40.421 40.421 40.421s40.421-18.863 40.421-40.421z" />
<glyph unicode="&#xe92d;" glyph-name="exclaimation" d="M508.062-153.436c-280.944 0-509.374 228.431-509.374 509.374s228.431 509.374 509.374 509.374c280.944 0 509.374-228.431 509.374-509.374s-228.431-509.374-509.374-509.374zM508.062 823.303c-259.938 0-469.99-210.051-469.99-469.99s210.051-469.99 469.99-469.99c259.938 0 469.99 210.051 469.99 469.99s-210.051 469.99-469.99 469.99zM508.062 1.477c-44.636 0-81.395 36.759-81.395 81.395s36.759 81.395 81.395 81.395c44.636 0 81.395-36.759 81.395-81.395s-34.133-81.395-81.395-81.395zM508.062 127.508c-23.631 0-42.010-18.379-42.010-42.010s18.379-42.010 42.010-42.010c23.631 0 42.010 18.379 42.010 42.010s-18.379 42.010-42.010 42.010zM565.826 208.903h-112.903l-52.513 375.467c-5.251 31.508 5.251 63.015 26.256 86.646s49.887 36.759 84.021 36.759c31.508 0 63.015-13.128 84.021-36.759s31.508-55.138 26.256-86.646l-55.138-375.467zM487.056 248.287h42.010l47.262 341.333c2.626 21.005-2.626 39.385-15.754 55.138-26.256 31.508-78.769 31.508-105.026 0-13.128-15.754-18.379-36.759-15.754-55.138l47.262-341.333z" />
<glyph unicode="&#xe92e;" glyph-name="news" horiz-adv-x="1105" d="M906.779-145.179c-5.389 0-8.084 0-10.779 2.695l-277.558 196.716h-487.747c-72.758 0-132.042 59.284-132.042 132.042v547.032c0 72.758 59.284 132.042 132.042 132.042h832.674c72.758 0 132.042-59.284 132.042-132.042v-544.337c0-72.758-59.284-132.042-132.042-132.042h-35.032v-180.547c0-8.084-5.389-13.474-10.779-18.863-2.695 0-8.084-2.695-10.779-2.695zM130.695 822.232c-51.2 0-91.621-40.421-91.621-91.621v-544.337c0-51.2 40.421-91.621 91.621-91.621h493.137c5.389 0 8.084 0 10.779-2.695l250.611-177.853v161.684c0 10.779 8.084 21.558 21.558 21.558h56.589c51.2 0 91.621 40.421 91.621 91.621v544.337c0 51.2-40.421 91.621-91.621 91.621h-832.674zM896 620.126h-695.242c-10.779 0-21.558 8.084-21.558 21.558s8.084 21.558 21.558 21.558h695.242c10.779 0 21.558-8.084 21.558-21.558s-10.779-21.558-21.558-21.558zM896 439.579h-695.242c-10.779 0-21.558 8.084-21.558 21.558s8.084 21.558 21.558 21.558h695.242c10.779 0 21.558-8.084 21.558-21.558s-10.779-21.558-21.558-21.558zM896 259.032h-695.242c-10.779 0-21.558 8.084-21.558 21.558s8.084 21.558 21.558 21.558h695.242c10.779 0 21.558-8.084 21.558-21.558s-10.779-21.558-21.558-21.558z" />
<glyph unicode="&#xe92f;" glyph-name="plus" horiz-adv-x="768" d="M736 416h-288v288c0 17.68-14.32 32-32 32h-64c-17.68 0-32-14.32-32-32v-288h-288c-17.68 0-32-14.32-32-32v-64c0-17.68 14.32-32 32-32h288v-288c0-17.68 14.32-32 32-32h64c17.68 0 32 14.32 32 32v288h288c17.68 0 32 14.32 32 32v64c0 17.68-14.32 32-32 32z" />
<glyph unicode="&#xe930;" glyph-name="times" horiz-adv-x="640" d="M415.2 352l215.44 215.44c12.46 12.46 12.46 32.68 0 45.16l-50.060 50.060c-12.46 12.46-32.68 12.46-45.16 0l-215.42-215.46-215.44 215.44c-12.46 12.46-32.68 12.46-45.16 0l-50.040-50.040c-12.46-12.46-12.46-32.68 0-45.16l215.44-215.44-215.44-215.44c-12.46-12.46-12.46-32.68 0-45.16l50.060-50.060c12.46-12.46 32.68-12.46 45.16 0l215.42 215.46 215.44-215.44c12.46-12.46 32.68-12.46 45.16 0l50.060 50.060c12.46 12.46 12.46 32.68 0 45.16l-215.46 215.42z" />
<glyph unicode="&#xe931;" glyph-name="Running-man" horiz-adv-x="845" d="M542.72 864c-61.44 0-112.64-51.2-112.64-112.64s51.2-112.64 112.64-112.64c61.44 0 112.64 51.2 112.64 112.64s-51.2 112.64-112.64 112.64v0zM542.72 679.68c-40.96 0-74.24 33.28-74.24 71.68 0 40.96 33.28 71.68 74.24 71.68s74.24-33.28 74.24-71.68c0-38.4-33.28-71.68-74.24-71.68v0zM325.12 654.080c-40.96 0-81.92-12.8-115.2-38.4l-92.16-71.68-2.56-2.56c-25.6-23.040-30.72-61.44-7.68-89.6 12.8-17.92 33.28-25.6 51.2-25.6 12.8 0 28.16 5.12 40.96 12.8l92.16 71.68 2.56 2.56 5.12 2.56c7.68 5.12 17.92 7.68 28.16 7.68 5.12 0 7.68 0 12.8-2.56l5.12-2.56-58.88-145.92-5.12-10.24c-15.36-56.32 5.12-115.2 56.32-145.92l158.72-94.72-64-197.12v-5.12c-7.68-33.28 12.8-69.12 46.080-76.8 5.12-2.56 12.8-2.56 17.92-2.56 28.16 0 53.76 20.48 64 48.64l64 199.68 2.56 5.12v5.12c10.24 51.2-12.8 104.96-58.88 133.12l-84.48 51.2 56.32 143.36 20.48-66.56 2.56-5.12c17.92-51.2 66.56-84.48 120.32-84.48h97.28c33.28 2.56 61.44 30.72 61.44 64v10.24c-5.12 33.28-30.72 56.32-64 56.32h-89.6l-25.6 84.48-2.56 7.68c-20.48 61.44-74.24 107.52-135.68 122.88l-151.040 33.28-7.68 2.56c-17.92 2.56-28.16 2.56-40.96 2.56v0zM158.72 464.64c-7.68 0-15.36 2.56-20.48 10.24-10.24 12.8-7.68 28.16 5.12 38.4l92.16 71.68 5.12 5.12c25.6 17.92 56.32 28.16 84.48 28.16 10.24 0 23.040 0 33.28-2.56l151.040-33.28 5.12-2.56c48.64-12.8 89.6-51.2 104.96-99.84l25.6-89.6v-2.56c5.12-12.8 17.92-20.48 30.72-20.48h94.72c12.8-2.56 23.040-12.8 23.040-25.6 0-15.36-12.8-25.6-28.16-25.6h-97.28c-35.84 2.56-69.12 25.6-79.36 61.44l-25.6 89.6-2.56 5.12c-2.56 7.68-7.68 15.36-12.8 23.040l-20.48 28.16-99.84-248.32 112.64-69.12 5.12-2.56c30.72-20.48 46.080-61.44 35.84-97.28l-64-199.68v-2.56c-5.12-10.24-12.8-17.92-25.6-17.92-2.56 0-5.12 0-7.68 0-15.36 5.12-23.040 17.92-17.92 33.28l64 199.68v2.56c0 2.56 0 5.12 0 7.68 0 12.8-7.68 23.040-17.92 30.72l-153.6 89.6-5.12 2.56c-33.28 23.040-48.64 66.56-33.28 104.96l76.8 189.44-51.2 12.8h-5.12c-5.12 0-10.24 0-15.36 0-20.48 0-40.96-7.68-58.88-20.48l-92.16-71.68-2.56-2.56c-2.56 2.56-7.68 0-12.8 0v0zM258.56 275.2l-51.2-120.32h-145.92c-33.28 0-61.44-30.72-61.44-64 0-35.84 28.16-66.56 66.56-66.56h148.48c48.64 2.56 92.16 30.72 110.080 76.8l33.28 76.8-30.72 20.48-5.12 5.12c-15.36 10.24-30.72 25.6-40.96 43.52l-23.040 28.16zM66.56 62.72h-2.56c-12.8 2.56-23.040 12.8-23.040 25.6 0 15.36 12.8 25.6 25.6 25.6h145.92c12.8 0 23.040 10.24 28.16 20.48l25.6 58.88 10.24-10.24c7.68-7.68 17.92-15.36 28.16-20.48l5.12-2.56-20.48-46.080-2.56-5.12c-15.36-30.72-46.080-48.64-79.36-48.64h-140.8v2.56z" />
<glyph unicode="&#xe932;" glyph-name="search" d="M1010-21.4l-199.4 199.4c-9 9-21.2 14-34 14h-32.6c55.2 70.6 88 159.4 88 256 0 229.8-186.2 416-416 416s-416-186.2-416-416 186.2-416 416-416c96.6 0 185.4 32.8 256 88v-32.6c0-12.8 5-25 14-34l199.4-199.4c18.8-18.8 49.2-18.8 67.8 0l56.6 56.6c18.8 18.8 18.8 49.2 0.2 68zM416 192c-141.4 0-256 114.4-256 256 0 141.4 114.4 256 256 256 141.4 0 256-114.4 256-256 0-141.4-114.4-256-256-256z" />
<glyph unicode="&#xe933;" glyph-name="shopping-cart" horiz-adv-x="1152" d="M1056.24 261.362l94.546 416c6.826 30.036-16.004 58.638-46.806 58.638h-785.564l-18.332 89.62c-4.568 22.338-24.224 38.38-47.026 38.38h-205.058c-26.51 0-48-21.49-48-48v-32c0-26.51 21.49-48 48-48h139.766l140.496-686.87c-33.612-19.33-56.262-55.574-56.262-97.13 0-61.856 50.144-112 112-112s112 50.144 112 112c0 31.348-12.894 59.67-33.648 80h419.294c-20.752-20.33-33.646-48.652-33.646-80 0-61.856 50.144-112 112-112s112 50.144 112 112c0 44.344-25.776 82.664-63.158 100.81l11.034 48.552c6.826 30.036-16.004 58.638-46.806 58.638h-536.836l-13.090 64h586.29c22.412 0 41.84 15.508 46.806 37.362z" />
<glyph unicode="&#xe934;" glyph-name="user" horiz-adv-x="896" d="M448 352c141.4 0 256 114.6 256 256s-114.6 256-256 256-256-114.6-256-256 114.6-256 256-256zM627.2 288h-33.4c-44.4-20.4-93.8-32-145.8-32s-101.2 11.6-145.8 32h-33.4c-148.4 0-268.8-120.4-268.8-268.8v-83.2c0-53 43-96 96-96h704c53 0 96 43 96 96v83.2c0 148.4-120.4 268.8-268.8 268.8z" />
<glyph unicode="&#xe935;" glyph-name="Arrow-Right" d="M512 864c-281.6 0-512-230.4-512-512s230.4-512 512-512c281.6 0 512 230.4 512 512s-230.4 512-512 512zM810.667 339.2l-281.6-281.6c-4.267-4.267-17.067-4.267-21.333 0l-25.6 25.6c-4.267 4.267-4.267 17.067 0 21.333l209.067 209.067h-465.067c-8.533 0-17.067 8.533-17.067 17.067v38.4c0 8.533 8.533 17.067 17.067 17.067h460.8l-209.067 209.067c-4.267 4.267-4.267 17.067 0 21.333l25.6 25.6c8.533 8.533 17.067 8.533 21.333 4.267l281.6-281.6c8.533-8.533 8.533-17.067 4.267-25.6z" />
<glyph unicode="&#xe936;" glyph-name="file-alt" horiz-adv-x="768" d="M576 368v-56c0-13.2-10.8-24-24-24h-336c-13.2 0-24 10.8-24 24v56c0 13.2 10.8 24 24 24h336c13.2 0 24-10.8 24-24zM552 224h-336c-13.2 0-24-10.8-24-24v-56c0-13.2 10.8-24 24-24h336c13.2 0 24 10.8 24 24v56c0 13.2-10.8 24-24 24zM768 600.2v-664.2c0-53-43-96-96-96h-576c-53 0-96 43-96 96v832c0 53 43 96 96 96h408.2c25.4 0 49.8-10.2 67.8-28.2l167.8-167.8c18-17.8 28.2-42.4 28.2-67.8zM512 760.2v-152.2h152.2l-152.2 152.2zM672-64v576h-208c-26.6 0-48 21.4-48 48v208h-320v-832h576z" />
<glyph unicode="&#xe937;" glyph-name="play-circle" d="M743.4 388l-352 214c-31.6 17.6-71.4-5-71.4-42v-416c0-36.8 39.6-59.6 71.4-42l352 202c32.8 18.2 32.8 65.6 0 84zM1008 352c0 274-222 496-496 496s-496-222-496-496 222-496 496-496 496 222 496 496zM112 352c0 221 179 400 400 400s400-179 400-400-179-400-400-400-400 179-400 400z" />
<glyph unicode="&#xe938;" glyph-name="hands-helping" horiz-adv-x="1280" d="M976 480h-304v-112c0-79.4-64.6-144-144-144s-144 64.6-144 144v243.2l-129.8-78c-38.6-23-62.2-64.8-62.2-109.6v-94.6l-160-92.4c-30.6-17.6-41.2-56.8-23.4-87.4l160-277.2c17.6-30.6 56.8-41 87.4-23.4l206.8 119.4h273.2c70.6 0 128 57.4 128 128h32c35.4 0 64 28.6 64 64v128h16c26.6 0 48 21.4 48 48v96c0 26.6-21.4 48-48 48zM1271.4 554.8l-160 277.2c-17.6 30.6-56.8 41-87.4 23.4l-206.8-119.4h-204.4c-24 0-47.4-6.8-67.8-19.4l-67-41.8c-18.8-11.6-30-32.2-30-54.2v-252.6c0-44.2 35.8-80 80-80s80 35.8 80 80v176h368c61.8 0 112-50.2 112-112v-57l160 92.4c30.6 17.8 41 56.8 23.4 87.4z" />
<glyph unicode="&#xe939;" glyph-name="pencil" d="M995.8 579.8l-92.2-92.2c-9.4-9.4-24.6-9.4-34 0l-222 222c-9.4 9.4-9.4 24.6 0 34l92.2 92.2c37.4 37.4 98.2 37.4 135.8 0l120.2-120.2c37.6-37.4 37.6-98.2 0-135.8zM568.4 664.4l-525.2-525.2-42.4-243c-5.8-32.8 22.8-61.2 55.6-55.6l243 42.6 525.2 525.2c9.4 9.4 9.4 24.6 0 34l-222 222c-9.6 9.4-24.8 9.4-34.2 0zM176 16h96v-72.6l-129-22.6-62.2 62.2 22.6 129h72.6v-96z" />
<glyph unicode="&#xe93a;" glyph-name="running" horiz-adv-x="832" d="M544 672c53.020 0 96 42.98 96 96s-42.98 96-96 96-96-42.98-96-96 42.98-96 96-96zM227.38 229.060l-29.6-69.040h-133.78c-35.34 0-64-28.66-64-64s28.66-64 64-64h154.9c38.5 0 73.16 22.88 88.22 58.18l17.58 41.040-21.34 12.6c-34.64 20.46-60.12 50.74-75.98 85.22zM768 416.020h-88.060l-52.12 106.5c-25 51.1-70.9 88.46-123.56 101.88l-142.16 42.28c-56.6 13.6-115.54 1.1-161.68-34.28l-79.34-60.82c-28.060-21.5-33.38-61.66-11.84-89.72s61.68-33.32 89.72-11.84l79.38 60.82c15.34 11.78 34.88 16 50.54 12.28l29.4-8.74-74.92-174.78c-25.24-58.96-2.62-128.020 52.6-160.62l169.96-100.34-54.94-175.46c-10.56-33.72 8.22-69.62 41.94-80.18 6.38-2 12.82-2.96 19.16-2.96 27.22 0 52.46 17.54 61.040 44.9l63.28 202.12c11.82 41.54-5.78 86.16-43.28 108.78l-122.48 72.28 62.62 156.56 40.54-82.86c16-32.68 49.84-53.78 86.22-53.78h107.98c35.34 0 64 28.66 64 64s-28.66 63.98-64 63.98z" />
<glyph unicode="&#xe93b;" glyph-name="sort" horiz-adv-x="640" d="M82 288h476c42.8 0 64.2-51.8 34-82l-238-238c-18.8-18.8-49.2-18.8-67.8 0l-238.2 238c-30.2 30.2-8.8 82 34 82zM592 498l-238 238c-18.8 18.8-49.2 18.8-67.8 0l-238.2-238c-30.2-30.2-8.8-82 34-82h476c42.8 0 64.2 51.8 34 82z" />
<glyph unicode="&#xe93c;" glyph-name="arrow-left" horiz-adv-x="896" d="M515-26.2l-44.4-44.4c-18.8-18.8-49.2-18.8-67.8 0l-388.8 388.6c-18.8 18.8-18.8 49.2 0 67.8l388.8 388.8c18.8 18.8 49.2 18.8 67.8 0l44.4-44.4c19-19 18.6-50-0.8-68.6l-241-229.6h574.8c26.6 0 48-21.4 48-48v-64c0-26.6-21.4-48-48-48h-574.8l241-229.6c19.6-18.6 20-49.6 0.8-68.6z" />
<glyph unicode="&#xe93d;" glyph-name="running1" horiz-adv-x="832" d="M252.32 230.28l-39.7-92.56c-2.54-5.9-8.28-9.72-14.7-9.72h-149.9c-26.5 0-48.020-21.5-48.020-48s21.52-48 48.020-48h149.9c44.86 0 85.3 26.62 103 67.88l27.1 63.2-19.12 11.54c-23.76 14.36-42.44 33.74-56.58 55.66zM544.3 672c53.040 0 96.060 42.98 96.060 96s-43 96-96.060 96-96.060-42.98-96.060-96 43.020-96 96.060-96zM784.12 382.88l-96.8 0.34c-7.060 0.040-13.2 4.6-15.22 11.32l-27.9 91.84c-18.38 60.38-68.040 106.54-129.64 120.46l-156.5 35.4c-51.46 11.72-104.9-0.16-146.52-32.44l-96.74-74.72c-20.98-16.18-24.86-46.34-8.62-67.32 16.16-21 46.46-24.82 67.36-8.62l96.78 74.72c18.92 14.66 43.36 19.84 66.6 14.76l29.76-6.74-70.6-174.7c-20.7-51.24-1.38-109.18 45.96-137.82l167.56-101.16c4.658-2.855 7.718-7.917 7.718-13.694 0-1.569-0.226-3.086-0.647-4.519l0.028 0.113-66.6-208.94c-7.28-25.5 7.48-52.060 32.98-59.34 4.4-1.24 8.84-1.84 13.22-1.84 20.88 0 40.12 13.72 46.16 34.82l66.6 208.94c13.86 48.5-6.62 100.56-49.8 126.66l-103.7 62.6 83.88 209.6c5.44-7.28 10.12-15.18 12.84-24.14l27.92-91.88c14.42-47.32 57.34-79.22 106.82-79.38l96.96-0.34c26.46 0 47.94 21.38 48.020 47.84 0.1 26.52-21.32 48.080-47.88 48.18z" />
<glyph unicode="&#xe93e;" glyph-name="lock" horiz-adv-x="896" d="M800 416h-48v144c0 167.6-136.4 304-304 304s-304-136.4-304-304v-144h-48c-53 0-96-43-96-96v-384c0-53 43-96 96-96h704c53 0 96 43 96 96v384c0 53-43 96-96 96zM592 416h-288v144c0 79.4 64.6 144 144 144s144-64.6 144-144v-144z" />
</font>
</defs>
</svg>
